<svg version="1.1" viewBox="0.0 0.0 2096.1417322834645 1221.1154855643044" fill="none" stroke="none" stroke-linecap="square" stroke-miterlimit="10" xmlns:xlink="http://www.w3.org/1999/xlink" xmlns="http://www.w3.org/2000/svg"><clipPath id="p.0"><path d="m0 0l2096.1418 0l0 1221.1155l-2096.1418 0l0 -1221.1155z" clip-rule="nonzero"/></clipPath><g clip-path="url(#p.0)"><path fill="#000000" fill-opacity="0.0" d="m0 0l2096.1418 0l0 1221.1155l-2096.1418 0z" fill-rule="evenodd"/><path shape-rendering="crispEdges" fill="#f9cb9c" d="m24.374016 200.81364l149.73227 0l0 236.2021l-149.73227 0l0 -236.2021z" fill-rule="nonzero"/><path shape-rendering="crispEdges" fill="#f9cb9c" d="m174.1063 200.81364l149.7323 0l0 63.196854l-149.7323 0l0 -63.196854z" fill-rule="nonzero"/><path shape-rendering="crispEdges" fill="#f9cb9c" d="m323.8386 200.81364l149.73227 0l0 63.196854l-149.73227 0l0 -63.196854z" fill-rule="nonzero"/><path shape-rendering="crispEdges" fill="#f9cb9c" d="m473.57086 200.81364l149.07349 0l0 63.196854l-149.07349 0l0 -63.196854z" fill-rule="nonzero"/><path shape-rendering="crispEdges" fill="#f9cb9c" d="m622.64435 200.81364l150.39636 0l0 63.196854l-150.39636 0l0 -63.196854z" fill-rule="nonzero"/><path shape-rendering="crispEdges" fill="#f9cb9c" d="m773.0407 200.81364l149.73224 0l0 63.196854l-149.73224 0l0 -63.196854z" fill-rule="nonzero"/><path shape-rendering="crispEdges" fill="#f9cb9c" d="m922.77295 200.81364l149.7323 0l0 63.196854l-149.7323 0l0 -63.196854z" fill-rule="nonzero"/><path shape-rendering="crispEdges" fill="#f9cb9c" d="m1072.5052 200.81364l149.7323 0l0 63.196854l-149.7323 0l0 -63.196854z" fill-rule="nonzero"/><path shape-rendering="crispEdges" fill="#f9cb9c" d="m174.1063 264.0105l149.7323 0l0 41.19684l-149.7323 0l0 -41.19684z" fill-rule="nonzero"/><path shape-rendering="crispEdges" fill="#f9cb9c" d="m323.8386 264.0105l149.73227 0l0 41.19684l-149.73227 0l0 -41.19684z" fill-rule="nonzero"/><path shape-rendering="crispEdges" fill="#f9cb9c" d="m473.57086 264.0105l149.07349 0l0 41.19684l-149.07349 0l0 -41.19684z" fill-rule="nonzero"/><path shape-rendering="crispEdges" fill="#f9cb9c" d="m622.64435 264.0105l150.39636 0l0 41.19684l-150.39636 0l0 -41.19684z" fill-rule="nonzero"/><path shape-rendering="crispEdges" fill="#f9cb9c" d="m773.0407 264.0105l149.73224 0l0 41.19684l-149.73224 0l0 -41.19684z" fill-rule="nonzero"/><path shape-rendering="crispEdges" fill="#f9cb9c" d="m922.77295 264.0105l149.7323 0l0 41.19684l-149.7323 0l0 -41.19684z" fill-rule="nonzero"/><path shape-rendering="crispEdges" fill="#f9cb9c" d="m1072.5052 264.0105l149.7323 0l0 41.19684l-149.7323 0l0 -41.19684z" fill-rule="nonzero"/><path shape-rendering="crispEdges" fill="#f9cb9c" d="m174.1063 305.20734l149.7323 0l0 41.19687l-149.7323 0l0 -41.19687z" fill-rule="nonzero"/><path shape-rendering="crispEdges" fill="#f9cb9c" d="m323.8386 305.20734l149.73227 0l0 41.19687l-149.73227 0l0 -41.19687z" fill-rule="nonzero"/><path shape-rendering="crispEdges" fill="#f9cb9c" d="m473.57086 305.20734l149.07349 0l0 41.19687l-149.07349 0l0 -41.19687z" fill-rule="nonzero"/><path shape-rendering="crispEdges" fill="#f9cb9c" d="m622.64435 305.20734l150.39636 0l0 41.19687l-150.39636 0l0 -41.19687z" fill-rule="nonzero"/><path shape-rendering="crispEdges" fill="#f9cb9c" d="m773.0407 305.20734l149.73224 0l0 41.19687l-149.73224 0l0 -41.19687z" fill-rule="nonzero"/><path shape-rendering="crispEdges" fill="#f9cb9c" d="m922.77295 305.20734l149.7323 0l0 41.19687l-149.7323 0l0 -41.19687z" fill-rule="nonzero"/><path shape-rendering="crispEdges" fill="#f9cb9c" d="m1072.5052 305.20734l149.7323 0l0 41.19687l-149.7323 0l0 -41.19687z" fill-rule="nonzero"/><path shape-rendering="crispEdges" fill="#f9cb9c" d="m174.1063 346.4042l149.7323 0l0 41.19684l-149.7323 0l0 -41.19684z" fill-rule="nonzero"/><path shape-rendering="crispEdges" fill="#f9cb9c" d="m323.8386 346.4042l149.73227 0l0 41.19684l-149.73227 0l0 -41.19684z" fill-rule="nonzero"/><path shape-rendering="crispEdges" fill="#f9cb9c" d="m473.57086 346.4042l149.07349 0l0 41.19684l-149.07349 0l0 -41.19684z" fill-rule="nonzero"/><path shape-rendering="crispEdges" fill="#f9cb9c" d="m622.64435 346.4042l150.39636 0l0 41.19684l-150.39636 0l0 -41.19684z" fill-rule="nonzero"/><path shape-rendering="crispEdges" fill="#f9cb9c" d="m773.0407 346.4042l149.73224 0l0 41.19684l-149.73224 0l0 -41.19684z" fill-rule="nonzero"/><path shape-rendering="crispEdges" fill="#f9cb9c" d="m922.77295 346.4042l149.7323 0l0 41.19684l-149.7323 0l0 -41.19684z" fill-rule="nonzero"/><path shape-rendering="crispEdges" fill="#f9cb9c" d="m1072.5052 346.4042l149.7323 0l0 41.19684l-149.7323 0l0 -41.19684z" fill-rule="nonzero"/><path shape-rendering="crispEdges" fill="#f9cb9c" d="m174.1063 387.60104l149.7323 0l0 49.414703l-149.7323 0l0 -49.414703z" fill-rule="nonzero"/><path shape-rendering="crispEdges" fill="#f9cb9c" d="m323.8386 387.60104l149.73227 0l0 49.414703l-149.73227 0l0 -49.414703z" fill-rule="nonzero"/><path shape-rendering="crispEdges" fill="#f9cb9c" d="m473.57086 387.60104l149.07349 0l0 49.414703l-149.07349 0l0 -49.414703z" fill-rule="nonzero"/><path shape-rendering="crispEdges" fill="#f9cb9c" d="m622.64435 387.60104l150.39636 0l0 49.414703l-150.39636 0l0 -49.414703z" fill-rule="nonzero"/><path shape-rendering="crispEdges" fill="#f9cb9c" d="m773.0407 387.60104l149.73224 0l0 49.414703l-149.73224 0l0 -49.414703z" fill-rule="nonzero"/><path shape-rendering="crispEdges" fill="#f9cb9c" d="m922.77295 387.60104l149.7323 0l0 49.414703l-149.7323 0l0 -49.414703z" fill-rule="nonzero"/><path shape-rendering="crispEdges" fill="#f9cb9c" d="m1072.5052 387.60104l149.7323 0l0 49.414703l-149.7323 0l0 -49.414703z" fill-rule="nonzero"/><path shape-rendering="crispEdges" fill="#f6b26b" d="m24.374016 437.01575l149.73227 0l0 301.50134l-149.73227 0l0 -301.50134z" fill-rule="nonzero"/><path shape-rendering="crispEdges" fill="#f6b26b" d="m174.1063 437.01575l149.7323 0l0 41.19684l-149.7323 0l0 -41.19684z" fill-rule="nonzero"/><path shape-rendering="crispEdges" fill="#f6b26b" d="m323.8386 437.01575l149.73227 0l0 41.19684l-149.73227 0l0 -41.19684z" fill-rule="nonzero"/><path shape-rendering="crispEdges" fill="#f6b26b" d="m473.57086 437.01575l149.07349 0l0 41.19684l-149.07349 0l0 -41.19684z" fill-rule="nonzero"/><path shape-rendering="crispEdges" fill="#f6b26b" d="m622.64435 437.01575l150.39636 0l0 41.19684l-150.39636 0l0 -41.19684z" fill-rule="nonzero"/><path shape-rendering="crispEdges" fill="#f6b26b" d="m773.0407 437.01575l149.73224 0l0 41.19684l-149.73224 0l0 -41.19684z" fill-rule="nonzero"/><path shape-rendering="crispEdges" fill="#f6b26b" d="m922.77295 437.01575l149.7323 0l0 41.19684l-149.7323 0l0 -41.19684z" fill-rule="nonzero"/><path shape-rendering="crispEdges" fill="#f6b26b" d="m1072.5052 437.01575l149.7323 0l0 41.19684l-149.7323 0l0 -41.19684z" fill-rule="nonzero"/><path shape-rendering="crispEdges" fill="#f6b26b" d="m174.1063 478.2126l149.7323 0l0 41.19684l-149.7323 0l0 -41.19684z" fill-rule="nonzero"/><path shape-rendering="crispEdges" fill="#f6b26b" d="m323.8386 478.2126l149.73227 0l0 41.19684l-149.73227 0l0 -41.19684z" fill-rule="nonzero"/><path shape-rendering="crispEdges" fill="#f6b26b" d="m473.57086 478.2126l149.07349 0l0 41.19684l-149.07349 0l0 -41.19684z" fill-rule="nonzero"/><path shape-rendering="crispEdges" fill="#f6b26b" d="m622.64435 478.2126l150.39636 0l0 41.19684l-150.39636 0l0 -41.19684z" fill-rule="nonzero"/><path shape-rendering="crispEdges" fill="#f6b26b" d="m773.0407 478.2126l149.73224 0l0 41.19684l-149.73224 0l0 -41.19684z" fill-rule="nonzero"/><path shape-rendering="crispEdges" fill="#f6b26b" d="m922.77295 478.2126l149.7323 0l0 41.19684l-149.7323 0l0 -41.19684z" fill-rule="nonzero"/><path shape-rendering="crispEdges" fill="#f6b26b" d="m1072.5052 478.2126l149.7323 0l0 41.19684l-149.7323 0l0 -41.19684z" fill-rule="nonzero"/><path shape-rendering="crispEdges" fill="#f6b26b" d="m174.1063 519.4094l149.7323 0l0 47.758545l-149.7323 0l0 -47.758545z" fill-rule="nonzero"/><path shape-rendering="crispEdges" fill="#f6b26b" d="m323.8386 519.4094l149.73227 0l0 47.758545l-149.73227 0l0 -47.758545z" fill-rule="nonzero"/><path shape-rendering="crispEdges" fill="#f6b26b" d="m473.57086 519.4094l149.07349 0l0 47.758545l-149.07349 0l0 -47.758545z" fill-rule="nonzero"/><path shape-rendering="crispEdges" fill="#f6b26b" d="m622.64435 519.4094l150.39636 0l0 47.758545l-150.39636 0l0 -47.758545z" fill-rule="nonzero"/><path shape-rendering="crispEdges" fill="#f6b26b" d="m773.0407 519.4094l149.73224 0l0 47.758545l-149.73224 0l0 -47.758545z" fill-rule="nonzero"/><path shape-rendering="crispEdges" fill="#f6b26b" d="m922.77295 519.4094l149.7323 0l0 47.758545l-149.7323 0l0 -47.758545z" fill-rule="nonzero"/><path shape-rendering="crispEdges" fill="#f6b26b" d="m1072.5052 519.4094l149.7323 0l0 47.758545l-149.7323 0l0 -47.758545z" fill-rule="nonzero"/><path shape-rendering="crispEdges" fill="#f6b26b" d="m174.1063 567.16797l149.7323 0l0 47.758545l-149.7323 0l0 -47.758545z" fill-rule="nonzero"/><path shape-rendering="crispEdges" fill="#f6b26b" d="m323.8386 567.16797l149.73227 0l0 47.758545l-149.73227 0l0 -47.758545z" fill-rule="nonzero"/><path shape-rendering="crispEdges" fill="#f6b26b" d="m473.57086 567.16797l149.07349 0l0 47.758545l-149.07349 0l0 -47.758545z" fill-rule="nonzero"/><path shape-rendering="crispEdges" fill="#f6b26b" d="m622.64435 567.16797l150.39636 0l0 47.758545l-150.39636 0l0 -47.758545z" fill-rule="nonzero"/><path shape-rendering="crispEdges" fill="#f6b26b" d="m773.0407 567.16797l149.73224 0l0 47.758545l-149.73224 0l0 -47.758545z" fill-rule="nonzero"/><path shape-rendering="crispEdges" fill="#f6b26b" d="m922.77295 567.16797l149.7323 0l0 47.758545l-149.7323 0l0 -47.758545z" fill-rule="nonzero"/><path shape-rendering="crispEdges" fill="#f6b26b" d="m1072.5052 567.16797l149.7323 0l0 47.758545l-149.7323 0l0 -47.758545z" fill-rule="nonzero"/><path shape-rendering="crispEdges" fill="#f6b26b" d="m174.1063 614.9265l149.7323 0l0 41.19684l-149.7323 0l0 -41.19684z" fill-rule="nonzero"/><path shape-rendering="crispEdges" fill="#f6b26b" d="m323.8386 614.9265l149.73227 0l0 41.19684l-149.73227 0l0 -41.19684z" fill-rule="nonzero"/><path shape-rendering="crispEdges" fill="#f6b26b" d="m473.57086 614.9265l149.07349 0l0 41.19684l-149.07349 0l0 -41.19684z" fill-rule="nonzero"/><path shape-rendering="crispEdges" fill="#f6b26b" d="m622.64435 614.9265l150.39636 0l0 41.19684l-150.39636 0l0 -41.19684z" fill-rule="nonzero"/><path shape-rendering="crispEdges" fill="#f6b26b" d="m773.0407 614.9265l149.73224 0l0 41.19684l-149.73224 0l0 -41.19684z" fill-rule="nonzero"/><path shape-rendering="crispEdges" fill="#f6b26b" d="m922.77295 614.9265l149.7323 0l0 41.19684l-149.7323 0l0 -41.19684z" fill-rule="nonzero"/><path shape-rendering="crispEdges" fill="#f6b26b" d="m1072.5052 614.9265l149.7323 0l0 41.19684l-149.7323 0l0 -41.19684z" fill-rule="nonzero"/><path shape-rendering="crispEdges" fill="#f6b26b" d="m174.1063 656.12335l149.7323 0l0 41.19684l-149.7323 0l0 -41.19684z" fill-rule="nonzero"/><path shape-rendering="crispEdges" fill="#f6b26b" d="m323.8386 656.12335l149.73227 0l0 41.19684l-149.73227 0l0 -41.19684z" fill-rule="nonzero"/><path shape-rendering="crispEdges" fill="#f6b26b" d="m473.57086 656.12335l149.07349 0l0 41.19684l-149.07349 0l0 -41.19684z" fill-rule="nonzero"/><path shape-rendering="crispEdges" fill="#f6b26b" d="m622.64435 656.12335l150.39636 0l0 41.19684l-150.39636 0l0 -41.19684z" fill-rule="nonzero"/><path shape-rendering="crispEdges" fill="#f6b26b" d="m773.0407 656.12335l149.73224 0l0 41.19684l-149.73224 0l0 -41.19684z" fill-rule="nonzero"/><path shape-rendering="crispEdges" fill="#f6b26b" d="m922.77295 656.12335l149.7323 0l0 41.19684l-149.7323 0l0 -41.19684z" fill-rule="nonzero"/><path shape-rendering="crispEdges" fill="#f6b26b" d="m1072.5052 656.12335l149.7323 0l0 41.19684l-149.7323 0l0 -41.19684z" fill-rule="nonzero"/><path shape-rendering="crispEdges" fill="#f6b26b" d="m174.1063 697.3202l149.7323 0l0 41.1969l-149.7323 0l0 -41.1969z" fill-rule="nonzero"/><path shape-rendering="crispEdges" fill="#f6b26b" d="m323.8386 697.3202l149.73227 0l0 41.1969l-149.73227 0l0 -41.1969z" fill-rule="nonzero"/><path shape-rendering="crispEdges" fill="#f6b26b" d="m473.57086 697.3202l149.07349 0l0 41.1969l-149.07349 0l0 -41.1969z" fill-rule="nonzero"/><path shape-rendering="crispEdges" fill="#f6b26b" d="m622.64435 697.3202l150.39636 0l0 41.1969l-150.39636 0l0 -41.1969z" fill-rule="nonzero"/><path shape-rendering="crispEdges" fill="#f6b26b" d="m773.0407 697.3202l149.73224 0l0 41.1969l-149.73224 0l0 -41.1969z" fill-rule="nonzero"/><path shape-rendering="crispEdges" fill="#f6b26b" d="m922.77295 697.3202l149.7323 0l0 41.1969l-149.7323 0l0 -41.1969z" fill-rule="nonzero"/><path shape-rendering="crispEdges" fill="#f6b26b" d="m1072.5052 697.3202l149.7323 0l0 41.1969l-149.7323 0l0 -41.1969z" fill-rule="nonzero"/><path stroke="#9e9e9e" stroke-width="1.0" stroke-linecap="butt" d="m24.374016 159.1181l0 579.89764" fill-rule="nonzero"/><path stroke="#9e9e9e" stroke-width="1.0" stroke-linecap="butt" d="m174.1063 159.1181l0 579.89764" fill-rule="nonzero"/><path stroke="#9e9e9e" stroke-width="1.0" stroke-linecap="butt" d="m323.8386 159.1181l0 579.89764" fill-rule="nonzero"/><path stroke="#9e9e9e" stroke-width="1.0" stroke-linecap="butt" d="m473.57086 159.1181l0 579.89764" fill-rule="nonzero"/><path stroke="#9e9e9e" stroke-width="1.0" stroke-linecap="butt" d="m622.64435 159.1181l0 579.89764" fill-rule="nonzero"/><path stroke="#9e9e9e" stroke-width="1.0" stroke-linecap="butt" d="m773.0407 159.1181l0 579.89764" fill-rule="nonzero"/><path stroke="#9e9e9e" stroke-width="1.0" stroke-linecap="butt" d="m922.77295 159.1181l0 579.89764" fill-rule="nonzero"/><path stroke="#9e9e9e" stroke-width="1.0" stroke-linecap="butt" d="m1072.5052 159.1181l0 579.89764" fill-rule="nonzero"/><path stroke="#9e9e9e" stroke-width="1.0" stroke-linecap="butt" d="m1222.2375 159.1181l0 579.89764" fill-rule="nonzero"/><path stroke="#9e9e9e" stroke-width="1.0" stroke-linecap="butt" d="m23.875328 159.61679l1198.8608 0" fill-rule="nonzero"/><path stroke="#9e9e9e" stroke-width="1.0" stroke-linecap="butt" d="m23.875328 200.81364l1198.8608 0" fill-rule="nonzero"/><path stroke="#9e9e9e" stroke-width="1.0" stroke-linecap="butt" d="m173.6076 264.0105l1049.1287 0" fill-rule="nonzero"/><path stroke="#9e9e9e" stroke-width="1.0" stroke-linecap="butt" d="m173.6076 305.20734l1049.1287 0" fill-rule="nonzero"/><path stroke="#9e9e9e" stroke-width="1.0" stroke-linecap="butt" d="m173.6076 346.4042l1049.1287 0" fill-rule="nonzero"/><path stroke="#9e9e9e" stroke-width="1.0" stroke-linecap="butt" d="m173.6076 387.60104l1049.1287 0" fill-rule="nonzero"/><path stroke="#9e9e9e" stroke-width="1.0" stroke-linecap="butt" d="m23.875328 437.01575l1198.8608 0" fill-rule="nonzero"/><path stroke="#9e9e9e" stroke-width="1.0" stroke-linecap="butt" d="m173.6076 478.2126l1049.1287 0" fill-rule="nonzero"/><path stroke="#9e9e9e" stroke-width="1.0" stroke-linecap="butt" d="m173.6076 519.4094l1049.1287 0" fill-rule="nonzero"/><path stroke="#9e9e9e" stroke-width="1.0" stroke-linecap="butt" d="m173.6076 567.16797l1049.1287 0" fill-rule="nonzero"/><path stroke="#9e9e9e" stroke-width="1.0" stroke-linecap="butt" d="m173.6076 614.9265l1049.1287 0" fill-rule="nonzero"/><path stroke="#9e9e9e" stroke-width="1.0" stroke-linecap="butt" d="m173.6076 656.12335l1049.1287 0" fill-rule="nonzero"/><path stroke="#9e9e9e" stroke-width="1.0" stroke-linecap="butt" d="m173.6076 697.3202l1049.1287 0" fill-rule="nonzero"/><path stroke="#9e9e9e" stroke-width="1.0" stroke-linecap="butt" d="m23.875328 738.5171l1198.8608 0" fill-rule="nonzero"/><path fill="#000000" d="m64.40756 381.73364l0 -13.359375l9.65625 0l0 1.578125l-7.875 0l0 4.09375l7.375 0l0 1.5625l-7.375 0l0 4.546875l8.1875 0l0 1.578125l-9.96875 0zm18.474823 0l0 -1.21875q-0.90625 1.4375 -2.703125 1.4375q-1.15625 0 -2.125 -0.640625q-0.96875 -0.640625 -1.5 -1.78125q-0.53125 -1.140625 -0.53125 -2.625q0 -1.453125 0.484375 -2.625q0.484375 -1.1875 1.4375 -1.8125q0.96875 -0.625 2.171875 -0.625q0.875 0 1.546875 0.375q0.6875 0.359375 1.109375 0.953125l0 -4.796875l1.640625 0l0 13.359375l-1.53125 0zm-5.171875 -4.828125q0 1.859375 0.78125 2.78125q0.78125 0.921875 1.84375 0.921875q1.078125 0 1.828125 -0.875q0.75 -0.890625 0.75 -2.6875q0 -1.984375 -0.765625 -2.90625q-0.765625 -0.9375 -1.890625 -0.9375q-1.078125 0 -1.8125 0.890625q-0.734375 0.890625 -0.734375 2.8125zm9.281967 -6.640625l0 -1.890625l1.640625 0l0 1.890625l-1.640625 0zm0 11.46875l0 -9.671875l1.640625 0l0 9.671875l-1.640625 0zm7.722946 -1.46875l0.234375 1.453125q-0.6875 0.140625 -1.234375 0.140625q-0.890625 0 -1.390625 -0.28125q-0.484375 -0.28125 -0.6875 -0.734375q-0.203125 -0.46875 -0.203125 -1.9375l0 -5.578125l-1.203125 0l0 -1.265625l1.203125 0l0 -2.390625l1.625 -0.984375l0 3.375l1.65625 0l0 1.265625l-1.65625 0l0 5.671875q0 0.6875 0.078125 0.890625q0.09375 0.203125 0.28125 0.328125q0.203125 0.109375 0.578125 0.109375q0.265625 0 0.71875 -0.0625zm1.6051788 -10.0l0 -1.890625l1.640625 0l0 1.890625l-1.640625 0zm0 11.46875l0 -9.671875l1.640625 0l0 9.671875l-1.640625 0zm3.5354462 -4.84375q0 -2.6875 1.484375 -3.96875q1.25 -1.078125 3.046875 -1.078125q2.0 0 3.265625 1.3125q1.265625 1.296875 1.265625 3.609375q0 1.859375 -0.5625 2.9375q-0.5625 1.0625 -1.640625 1.65625q-1.0625 0.59375 -2.328125 0.59375q-2.03125 0 -3.28125 -1.296875q-1.25 -1.3125 -1.25 -3.765625zm1.6875 0q0 1.859375 0.796875 2.796875q0.8125 0.921875 2.046875 0.921875q1.21875 0 2.03125 -0.921875q0.8125 -0.9375 0.8125 -2.84375q0 -1.796875 -0.8125 -2.71875q-0.8125 -0.921875 -2.03125 -0.921875q-1.234375 0 -2.046875 0.921875q-0.796875 0.90625 -0.796875 2.765625zm9.297592 4.84375l0 -9.671875l1.46875 0l0 1.375q1.0625 -1.59375 3.078125 -1.59375q0.875 0 1.609375 0.3125q0.734375 0.3125 1.09375 0.828125q0.375 0.5 0.515625 1.203125q0.09375 0.453125 0.09375 1.59375l0 5.953125l-1.640625 0l0 -5.890625q0 -1.0 -0.203125 -1.484375q-0.1875 -0.5 -0.671875 -0.796875q-0.484375 -0.296875 -1.140625 -0.296875q-1.046875 0 -1.8125 0.671875q-0.75 0.65625 -0.75 2.515625l0 5.28125l-1.640625 0zm21.277771 0l-1.640625 0l0 -10.453125q-0.59375 0.5625 -1.5625 1.140625q-0.953125 0.5625 -1.71875 0.84375l0 -1.59375q1.375 -0.640625 2.40625 -1.5625q1.03125 -0.921875 1.453125 -1.78125l1.0625 0l0 13.40625z" fill-rule="nonzero"/><path fill="#000000" d="m233.74342 227.73364l0 -13.359375l5.015625 0q1.53125 0 2.453125 0.40625q0.921875 0.40625 1.4375 1.25q0.53125 0.84375 0.53125 1.765625q0 0.859375 -0.46875 1.625q-0.453125 0.75 -1.390625 1.203125q1.203125 0.359375 1.859375 1.21875q0.65625 0.859375 0.65625 2.015625q0 0.9375 -0.40625 1.75q-0.390625 0.796875 -0.984375 1.234375q-0.578125 0.4375 -1.453125 0.671875q-0.875 0.21875 -2.15625 0.21875l-5.09375 0zm1.78125 -7.75l2.875 0q1.1875 0 1.6875 -0.140625q0.671875 -0.203125 1.015625 -0.671875q0.34375 -0.46875 0.34375 -1.171875q0 -0.65625 -0.328125 -1.15625q-0.3125 -0.515625 -0.90625 -0.703125q-0.59375 -0.1875 -2.03125 -0.1875l-2.65625 0l0 4.03125zm0 6.171875l3.3125 0q0.859375 0 1.203125 -0.0625q0.609375 -0.109375 1.015625 -0.359375q0.421875 -0.265625 0.6875 -0.75q0.265625 -0.484375 0.265625 -1.125q0 -0.75 -0.390625 -1.296875q-0.375 -0.546875 -1.0625 -0.765625q-0.671875 -0.234375 -1.953125 -0.234375l-3.078125 0l0 4.59375zm10.537323 -9.890625l0 -1.890625l1.640625 0l0 1.890625l-1.640625 0zm0 11.46875l0 -9.671875l1.640625 0l0 9.671875l-1.640625 0zm4.129196 0l0 -9.671875l1.46875 0l0 1.46875q0.5625 -1.03125 1.03125 -1.359375q0.484375 -0.328125 1.0625 -0.328125q0.828125 0 1.6875 0.53125l-0.5625 1.515625q-0.609375 -0.359375 -1.203125 -0.359375q-0.546875 0 -0.96875 0.328125q-0.421875 0.328125 -0.609375 0.890625q-0.28125 0.875 -0.28125 1.921875l0 5.0625l-1.625 0zm12.493927 0l0 -1.21875q-0.90625 1.4375 -2.703125 1.4375q-1.15625 0 -2.125 -0.640625q-0.96875 -0.640625 -1.5 -1.78125q-0.53125 -1.140625 -0.53125 -2.625q0 -1.453125 0.484375 -2.625q0.484375 -1.1875 1.4375 -1.8125q0.96875 -0.625 2.171875 -0.625q0.875 0 1.546875 0.375q0.6875 0.359375 1.109375 0.953125l0 -4.796875l1.640625 0l0 13.359375l-1.53125 0zm-5.171875 -4.828125q0 1.859375 0.78125 2.78125q0.78125 0.921875 1.84375 0.921875q1.078125 0 1.828125 -0.875q0.75 -0.890625 0.75 -2.6875q0 -1.984375 -0.765625 -2.90625q-0.765625 -0.9375 -1.890625 -0.9375q-1.078125 0 -1.8125 0.890625q-0.734375 0.890625 -0.734375 2.8125z" fill-rule="nonzero"/><path fill="#000000" d="m201.57083 246.18677l1.609375 0.21875q-0.265625 1.65625 -1.359375 2.609375q-1.078125 0.9375 -2.671875 0.9375q-1.984375 0 -3.1875 -1.296875q-1.203125 -1.296875 -1.203125 -3.71875q0 -1.578125 0.515625 -2.75q0.515625 -1.171875 1.578125 -1.75q1.0625 -0.59375 2.3125 -0.59375q1.578125 0 2.578125 0.796875q1.0 0.796875 1.28125 2.265625l-1.59375 0.234375q-0.234375 -0.96875 -0.8125 -1.453125q-0.578125 -0.5 -1.390625 -0.5q-1.234375 0 -2.015625 0.890625q-0.78125 0.890625 -0.78125 2.8125q0 1.953125 0.75 2.84375q0.75 0.875 1.953125 0.875q0.96875 0 1.609375 -0.59375q0.65625 -0.59375 0.828125 -1.828125zm3.015625 3.546875l0 -13.359375l1.640625 0l0 4.796875q1.140625 -1.328125 2.890625 -1.328125q1.078125 0 1.859375 0.421875q0.796875 0.421875 1.140625 1.171875q0.34375 0.75 0.34375 2.171875l0 6.125l-1.640625 0l0 -6.125q0 -1.234375 -0.53125 -1.796875q-0.53125 -0.5625 -1.515625 -0.5625q-0.71875 0 -1.359375 0.390625q-0.640625 0.375 -0.921875 1.015625q-0.265625 0.640625 -0.265625 1.78125l0 5.296875l-1.640625 0zm16.688217 -1.1875q-0.921875 0.765625 -1.765625 1.09375q-0.828125 0.3125 -1.796875 0.3125q-1.59375 0 -2.453125 -0.78125q-0.859375 -0.78125 -0.859375 -1.984375q0 -0.71875 0.328125 -1.296875q0.328125 -0.59375 0.84375 -0.9375q0.53125 -0.359375 1.1875 -0.546875q0.46875 -0.125 1.453125 -0.25q1.984375 -0.234375 2.921875 -0.5625q0.015625 -0.34375 0.015625 -0.421875q0 -1.0 -0.46875 -1.421875q-0.625 -0.546875 -1.875 -0.546875q-1.15625 0 -1.703125 0.40625q-0.546875 0.40625 -0.8125 1.421875l-1.609375 -0.21875q0.21875 -1.015625 0.71875 -1.640625q0.5 -0.640625 1.453125 -0.984375q0.953125 -0.34375 2.1875 -0.34375q1.25 0 2.015625 0.296875q0.78125 0.28125 1.140625 0.734375q0.375 0.4375 0.515625 1.109375q0.078125 0.421875 0.078125 1.515625l0 2.1875q0 2.28125 0.109375 2.890625q0.109375 0.59375 0.40625 1.15625l-1.703125 0q-0.265625 -0.515625 -0.328125 -1.1875zm-0.140625 -3.671875q-0.890625 0.375 -2.671875 0.625q-1.015625 0.140625 -1.4375 0.328125q-0.421875 0.1875 -0.65625 0.53125q-0.21875 0.34375 -0.21875 0.78125q0 0.65625 0.5 1.09375q0.5 0.4375 1.453125 0.4375q0.9375 0 1.671875 -0.40625q0.75 -0.421875 1.09375 -1.140625q0.265625 -0.5625 0.265625 -1.640625l0 -0.609375zm4.188217 4.859375l0 -9.671875l1.46875 0l0 1.46875q0.5625 -1.03125 1.03125 -1.359375q0.484375 -0.328125 1.0625 -0.328125q0.828125 0 1.6875 0.53125l-0.5625 1.515625q-0.609375 -0.359375 -1.203125 -0.359375q-0.546875 0 -0.96875 0.328125q-0.421875 0.328125 -0.609375 0.890625q-0.28125 0.875 -0.28125 1.921875l0 5.0625l-1.625 0zm12.540802 -1.1875q-0.921875 0.765625 -1.765625 1.09375q-0.828125 0.3125 -1.796875 0.3125q-1.59375 0 -2.453125 -0.78125q-0.859375 -0.78125 -0.859375 -1.984375q0 -0.71875 0.328125 -1.296875q0.328125 -0.59375 0.84375 -0.9375q0.53125 -0.359375 1.1875 -0.546875q0.46875 -0.125 1.453125 -0.25q1.984375 -0.234375 2.921875 -0.5625q0.015625 -0.34375 0.015625 -0.421875q0 -1.0 -0.46875 -1.421875q-0.625 -0.546875 -1.875 -0.546875q-1.15625 0 -1.703125 0.40625q-0.546875 0.40625 -0.8125 1.421875l-1.609375 -0.21875q0.21875 -1.015625 0.71875 -1.640625q0.5 -0.640625 1.453125 -0.984375q0.953125 -0.34375 2.1875 -0.34375q1.25 0 2.015625 0.296875q0.78125 0.28125 1.140625 0.734375q0.375 0.4375 0.515625 1.109375q0.078125 0.421875 0.078125 1.515625l0 2.1875q0 2.28125 0.109375 2.890625q0.109375 0.59375 0.40625 1.15625l-1.703125 0q-0.265625 -0.515625 -0.328125 -1.1875zm-0.140625 -3.671875q-0.890625 0.375 -2.671875 0.625q-1.015625 0.140625 -1.4375 0.328125q-0.421875 0.1875 -0.65625 0.53125q-0.21875 0.34375 -0.21875 0.78125q0 0.65625 0.5 1.09375q0.5 0.4375 1.453125 0.4375q0.9375 0 1.671875 -0.40625q0.75 -0.421875 1.09375 -1.140625q0.265625 -0.5625 0.265625 -1.640625l0 -0.609375zm10.516342 1.3125l1.609375 0.21875q-0.265625 1.65625 -1.359375 2.609375q-1.078125 0.9375 -2.671875 0.9375q-1.984375 0 -3.1875 -1.296875q-1.203125 -1.296875 -1.203125 -3.71875q0 -1.578125 0.515625 -2.75q0.515625 -1.171875 1.578125 -1.75q1.0625 -0.59375 2.3125 -0.59375q1.578125 0 2.578125 0.796875q1.0 0.796875 1.28125 2.265625l-1.59375 0.234375q-0.234375 -0.96875 -0.8125 -1.453125q-0.578125 -0.5 -1.390625 -0.5q-1.234375 0 -2.015625 0.890625q-0.78125 0.890625 -0.78125 2.8125q0 1.953125 0.75 2.84375q0.75 0.875 1.953125 0.875q0.96875 0 1.609375 -0.59375q0.65625 -0.59375 0.828125 -1.828125zm6.59375 2.078125l0.234375 1.453125q-0.6875 0.140625 -1.234375 0.140625q-0.890625 0 -1.390625 -0.28125q-0.484375 -0.28125 -0.6875 -0.734375q-0.203125 -0.46875 -0.203125 -1.9375l0 -5.578125l-1.203125 0l0 -1.265625l1.203125 0l0 -2.390625l1.625 -0.984375l0 3.375l1.65625 0l0 1.265625l-1.65625 0l0 5.671875q0 0.6875 0.078125 0.890625q0.09375 0.203125 0.28125 0.328125q0.203125 0.109375 0.578125 0.109375q0.265625 0 0.71875 -0.0625zm8.230179 -1.640625l1.6875 0.203125q-0.40625 1.484375 -1.484375 2.3125q-1.078125 0.8125 -2.765625 0.8125q-2.125 0 -3.375 -1.296875q-1.234375 -1.3125 -1.234375 -3.671875q0 -2.453125 1.25 -3.796875q1.265625 -1.34375 3.265625 -1.34375q1.9375 0 3.15625 1.328125q1.234375 1.3125 1.234375 3.703125q0 0.15625 0 0.4375l-7.21875 0q0.09375 1.59375 0.90625 2.453125q0.8125 0.84375 2.015625 0.84375q0.90625 0 1.546875 -0.46875q0.640625 -0.484375 1.015625 -1.515625zm-5.390625 -2.65625l5.40625 0q-0.109375 -1.21875 -0.625 -1.828125q-0.78125 -0.953125 -2.03125 -0.953125q-1.125 0 -1.90625 0.765625q-0.765625 0.75 -0.84375 2.015625zm9.125702 5.765625l0 -9.671875l1.46875 0l0 1.46875q0.5625 -1.03125 1.03125 -1.359375q0.484375 -0.328125 1.0625 -0.328125q0.828125 0 1.6875 0.53125l-0.5625 1.515625q-0.609375 -0.359375 -1.203125 -0.359375q-0.546875 0 -0.96875 0.328125q-0.421875 0.328125 -0.609375 0.890625q-0.28125 0.875 -0.28125 1.921875l0 5.0625l-1.625 0zm6.228302 -11.46875l0 -1.890625l1.640625 0l0 1.890625l-1.640625 0zm0 11.46875l0 -9.671875l1.640625 0l0 9.671875l-1.640625 0zm3.4885864 -2.890625l1.625 -0.25q0.125 0.96875 0.75 1.5q0.625 0.515625 1.75 0.515625q1.125 0 1.671875 -0.453125q0.546875 -0.46875 0.546875 -1.09375q0 -0.546875 -0.484375 -0.875q-0.328125 -0.21875 -1.671875 -0.546875q-1.8125 -0.46875 -2.515625 -0.796875q-0.6875 -0.328125 -1.046875 -0.90625q-0.359375 -0.59375 -0.359375 -1.3125q0 -0.640625 0.296875 -1.1875q0.296875 -0.5625 0.8125 -0.921875q0.375 -0.28125 1.03125 -0.46875q0.671875 -0.203125 1.421875 -0.203125q1.140625 0 2.0 0.328125q0.859375 0.328125 1.265625 0.890625q0.421875 0.5625 0.578125 1.5l-1.609375 0.21875q-0.109375 -0.75 -0.640625 -1.171875q-0.515625 -0.421875 -1.46875 -0.421875q-1.140625 0 -1.625 0.375q-0.46875 0.375 -0.46875 0.875q0 0.3125 0.1875 0.578125q0.203125 0.265625 0.640625 0.4375q0.234375 0.09375 1.4375 0.421875q1.75 0.453125 2.4375 0.75q0.6875 0.296875 1.078125 0.859375q0.390625 0.5625 0.390625 1.40625q0 0.828125 -0.484375 1.546875q-0.46875 0.71875 -1.375 1.125q-0.90625 0.390625 -2.046875 0.390625q-1.875 0 -2.875 -0.78125q-0.984375 -0.78125 -1.25 -2.328125zm13.5625 1.421875l0.234375 1.453125q-0.6875 0.140625 -1.234375 0.140625q-0.890625 0 -1.390625 -0.28125q-0.484375 -0.28125 -0.6875 -0.734375q-0.203125 -0.46875 -0.203125 -1.9375l0 -5.578125l-1.203125 0l0 -1.265625l1.203125 0l0 -2.390625l1.625 -0.984375l0 3.375l1.65625 0l0 1.265625l-1.65625 0l0 5.671875q0 0.6875 0.078125 0.890625q0.09375 0.203125 0.28125 0.328125q0.203125 0.109375 0.578125 0.109375q0.265625 0 0.71875 -0.0625zm1.6051636 -10.0l0 -1.890625l1.640625 0l0 1.890625l-1.640625 0zm0 11.46875l0 -9.671875l1.640625 0l0 9.671875l-1.640625 0zm10.457336 -3.546875l1.609375 0.21875q-0.265625 1.65625 -1.359375 2.609375q-1.078125 0.9375 -2.671875 0.9375q-1.984375 0 -3.1875 -1.296875q-1.203125 -1.296875 -1.203125 -3.71875q0 -1.578125 0.515625 -2.75q0.515625 -1.171875 1.578125 -1.75q1.0625 -0.59375 2.3125 -0.59375q1.578125 0 2.578125 0.796875q1.0 0.796875 1.28125 2.265625l-1.59375 0.234375q-0.234375 -0.96875 -0.8125 -1.453125q-0.578125 -0.5 -1.390625 -0.5q-1.234375 0 -2.015625 0.890625q-0.78125 0.890625 -0.78125 2.8125q0 1.953125 0.75 2.84375q0.75 0.875 1.953125 0.875q0.96875 0 1.609375 -0.59375q0.65625 -0.59375 0.828125 -1.828125z" fill-rule="nonzero"/><path fill="#000000" d="m367.56 227.73364l5.125 -13.359375l1.90625 0l5.46875 13.359375l-2.015625 0l-1.546875 -4.046875l-5.59375 0l-1.46875 4.046875l-1.875 0zm3.859375 -5.484375l4.53125 0l-1.40625 -3.703125q-0.625 -1.6875 -0.9375 -2.765625q-0.265625 1.28125 -0.71875 2.546875l-1.46875 3.921875zm9.849823 5.484375l0 -9.671875l1.46875 0l0 1.375q1.0625 -1.59375 3.078125 -1.59375q0.875 0 1.609375 0.3125q0.734375 0.3125 1.09375 0.828125q0.375 0.5 0.515625 1.203125q0.09375 0.453125 0.09375 1.59375l0 5.953125l-1.640625 0l0 -5.890625q0 -1.0 -0.203125 -1.484375q-0.1875 -0.5 -0.671875 -0.796875q-0.484375 -0.296875 -1.140625 -0.296875q-1.046875 0 -1.8125 0.671875q-0.75 0.65625 -0.75 2.515625l0 5.28125l-1.640625 0zm16.688202 -3.546875l1.609375 0.21875q-0.265625 1.65625 -1.359375 2.609375q-1.078125 0.9375 -2.671875 0.9375q-1.984375 0 -3.1875 -1.296875q-1.203125 -1.296875 -1.203125 -3.71875q0 -1.578125 0.515625 -2.75q0.515625 -1.171875 1.578125 -1.75q1.0625 -0.59375 2.3125 -0.59375q1.578125 0 2.578125 0.796875q1.0 0.796875 1.28125 2.265625l-1.59375 0.234375q-0.234375 -0.96875 -0.8125 -1.453125q-0.578125 -0.5 -1.390625 -0.5q-1.234375 0 -2.015625 0.890625q-0.78125 0.890625 -0.78125 2.8125q0 1.953125 0.75 2.84375q0.75 0.875 1.953125 0.875q0.96875 0 1.609375 -0.59375q0.65625 -0.59375 0.828125 -1.828125zm3.015625 -7.921875l0 -1.890625l1.640625 0l0 1.890625l-1.640625 0zm0 11.46875l0 -9.671875l1.640625 0l0 9.671875l-1.640625 0zm10.769836 -3.109375l1.6875 0.203125q-0.40625 1.484375 -1.484375 2.3125q-1.078125 0.8125 -2.765625 0.8125q-2.125 0 -3.375 -1.296875q-1.234375 -1.3125 -1.234375 -3.671875q0 -2.453125 1.25 -3.796875q1.265625 -1.34375 3.265625 -1.34375q1.9375 0 3.15625 1.328125q1.234375 1.3125 1.234375 3.703125q0 0.15625 0 0.4375l-7.21875 0q0.09375 1.59375 0.90625 2.453125q0.8125 0.84375 2.015625 0.84375q0.90625 0 1.546875 -0.46875q0.640625 -0.484375 1.015625 -1.515625zm-5.390625 -2.65625l5.40625 0q-0.109375 -1.21875 -0.625 -1.828125q-0.78125 -0.953125 -2.03125 -0.953125q-1.125 0 -1.90625 0.765625q-0.765625 0.75 -0.84375 2.015625zm9.141327 5.765625l0 -9.671875l1.46875 0l0 1.375q1.0625 -1.59375 3.078125 -1.59375q0.875 0 1.609375 0.3125q0.734375 0.3125 1.09375 0.828125q0.375 0.5 0.515625 1.203125q0.09375 0.453125 0.09375 1.59375l0 5.953125l-1.640625 0l0 -5.890625q0 -1.0 -0.203125 -1.484375q-0.1875 -0.5 -0.671875 -0.796875q-0.484375 -0.296875 -1.140625 -0.296875q-1.046875 0 -1.8125 0.671875q-0.75 0.65625 -0.75 2.515625l0 5.28125l-1.640625 0zm13.953857 -1.46875l0.234375 1.453125q-0.6875 0.140625 -1.234375 0.140625q-0.890625 0 -1.390625 -0.28125q-0.484375 -0.28125 -0.6875 -0.734375q-0.203125 -0.46875 -0.203125 -1.9375l0 -5.578125l-1.203125 0l0 -1.265625l1.203125 0l0 -2.390625l1.625 -0.984375l0 3.375l1.65625 0l0 1.265625l-1.65625 0l0 5.671875q0 0.6875 0.078125 0.890625q0.09375 0.203125 0.28125 0.328125q0.203125 0.109375 0.578125 0.109375q0.265625 0 0.71875 -0.0625z" fill-rule="nonzero"/><path fill="#000000" d="m370.47406 248.54614q-0.921875 0.765625 -1.765625 1.09375q-0.828125 0.3125 -1.796875 0.3125q-1.59375 0 -2.453125 -0.78125q-0.859375 -0.78125 -0.859375 -1.984375q0 -0.71875 0.328125 -1.296875q0.328125 -0.59375 0.84375 -0.9375q0.53125 -0.359375 1.1875 -0.546875q0.46875 -0.125 1.453125 -0.25q1.984375 -0.234375 2.921875 -0.5625q0.015625 -0.34375 0.015625 -0.421875q0 -1.0 -0.46875 -1.421875q-0.625 -0.546875 -1.875 -0.546875q-1.15625 0 -1.703125 0.40625q-0.546875 0.40625 -0.8125 1.421875l-1.609375 -0.21875q0.21875 -1.015625 0.71875 -1.640625q0.5 -0.640625 1.453125 -0.984375q0.953125 -0.34375 2.1875 -0.34375q1.25 0 2.015625 0.296875q0.78125 0.28125 1.140625 0.734375q0.375 0.4375 0.515625 1.109375q0.078125 0.421875 0.078125 1.515625l0 2.1875q0 2.28125 0.109375 2.890625q0.109375 0.59375 0.40625 1.15625l-1.703125 0q-0.265625 -0.515625 -0.328125 -1.1875zm-0.140625 -3.671875q-0.890625 0.375 -2.671875 0.625q-1.015625 0.140625 -1.4375 0.328125q-0.421875 0.1875 -0.65625 0.53125q-0.21875 0.34375 -0.21875 0.78125q0 0.65625 0.5 1.09375q0.5 0.4375 1.453125 0.4375q0.9375 0 1.671875 -0.40625q0.75 -0.421875 1.09375 -1.140625q0.265625 -0.5625 0.265625 -1.640625l0 -0.609375zm10.531952 4.859375l0 -1.421875q-1.125 1.640625 -3.0625 1.640625q-0.859375 0 -1.609375 -0.328125q-0.734375 -0.328125 -1.09375 -0.828125q-0.359375 -0.5 -0.5 -1.21875q-0.109375 -0.46875 -0.109375 -1.53125l0 -5.984375l1.640625 0l0 5.359375q0 1.28125 0.109375 1.734375q0.15625 0.640625 0.65625 1.015625q0.5 0.375 1.234375 0.375q0.734375 0 1.375 -0.375q0.65625 -0.390625 0.921875 -1.03125q0.265625 -0.65625 0.265625 -1.890625l0 -5.1875l1.640625 0l0 9.671875l-1.46875 0zm7.6257324 -1.46875l0.234375 1.453125q-0.6875 0.140625 -1.234375 0.140625q-0.890625 0 -1.390625 -0.28125q-0.484375 -0.28125 -0.6875 -0.734375q-0.203125 -0.46875 -0.203125 -1.9375l0 -5.578125l-1.203125 0l0 -1.265625l1.203125 0l0 -2.390625l1.625 -0.984375l0 3.375l1.65625 0l0 1.265625l-1.65625 0l0 5.671875q0 0.6875 0.078125 0.890625q0.09375 0.203125 0.28125 0.328125q0.203125 0.109375 0.578125 0.109375q0.265625 0 0.71875 -0.0625zm1.6051636 1.46875l0 -13.359375l1.640625 0l0 4.796875q1.140625 -1.328125 2.890625 -1.328125q1.078125 0 1.859375 0.421875q0.796875 0.421875 1.140625 1.171875q0.34375 0.75 0.34375 2.171875l0 6.125l-1.640625 0l0 -6.125q0 -1.234375 -0.53125 -1.796875q-0.53125 -0.5625 -1.515625 -0.5625q-0.71875 0 -1.359375 0.390625q-0.640625 0.375 -0.921875 1.015625q-0.265625 0.640625 -0.265625 1.78125l0 5.296875l-1.640625 0zm9.766357 -4.84375q0 -2.6875 1.484375 -3.96875q1.25 -1.078125 3.046875 -1.078125q2.0 0 3.265625 1.3125q1.265625 1.296875 1.265625 3.609375q0 1.859375 -0.5625 2.9375q-0.5625 1.0625 -1.640625 1.65625q-1.0625 0.59375 -2.328125 0.59375q-2.03125 0 -3.28125 -1.296875q-1.25 -1.3125 -1.25 -3.765625zm1.6875 0q0 1.859375 0.796875 2.796875q0.8125 0.921875 2.046875 0.921875q1.21875 0 2.03125 -0.921875q0.8125 -0.9375 0.8125 -2.84375q0 -1.796875 -0.8125 -2.71875q-0.8125 -0.921875 -2.03125 -0.921875q-1.234375 0 -2.046875 0.921875q-0.796875 0.90625 -0.796875 2.765625zm9.281952 4.84375l0 -9.671875l1.46875 0l0 1.46875q0.5625 -1.03125 1.03125 -1.359375q0.484375 -0.328125 1.0625 -0.328125q0.828125 0 1.6875 0.53125l-0.5625 1.515625q-0.609375 -0.359375 -1.203125 -0.359375q-0.546875 0 -0.96875 0.328125q-0.421875 0.328125 -0.609375 0.890625q-0.28125 0.875 -0.28125 1.921875l0 5.0625l-1.625 0zm6.228302 -11.46875l0 -1.890625l1.640625 0l0 1.890625l-1.640625 0zm0 11.46875l0 -9.671875l1.640625 0l0 9.671875l-1.640625 0zm7.7229614 -1.46875l0.234375 1.453125q-0.6875 0.140625 -1.234375 0.140625q-0.890625 0 -1.390625 -0.28125q-0.484375 -0.28125 -0.6875 -0.734375q-0.203125 -0.46875 -0.203125 -1.9375l0 -5.578125l-1.203125 0l0 -1.265625l1.203125 0l0 -2.390625l1.625 -0.984375l0 3.375l1.65625 0l0 1.265625l-1.65625 0l0 5.671875q0 0.6875 0.078125 0.890625q0.09375 0.203125 0.28125 0.328125q0.203125 0.109375 0.578125 0.109375q0.265625 0 0.71875 -0.0625zm1.5270386 5.1875l-0.1875 -1.53125q0.546875 0.140625 0.9375 0.140625q0.546875 0 0.875 -0.1875q0.328125 -0.171875 0.546875 -0.5q0.15625 -0.25 0.5 -1.21875q0.046875 -0.140625 0.140625 -0.40625l-3.671875 -9.6875l1.765625 0l2.015625 5.59375q0.390625 1.078125 0.703125 2.25q0.28125 -1.125 0.671875 -2.203125l2.078125 -5.640625l1.640625 0l-3.6875 9.828125q-0.59375 1.609375 -0.921875 2.203125q-0.4375 0.8125 -1.0 1.1875q-0.5625 0.375 -1.34375 0.375q-0.484375 0 -1.0625 -0.203125z" fill-rule="nonzero"/><path fill="#000000" d="m64.40756 617.9357l0 -13.359375l9.65625 0l0 1.578125l-7.875 0l0 4.09375l7.375 0l0 1.5625l-7.375 0l0 4.546875l8.1875 0l0 1.578125l-9.96875 0zm18.474823 0l0 -1.21875q-0.90625 1.4375 -2.703125 1.4375q-1.15625 0 -2.125 -0.640625q-0.96875 -0.640625 -1.5 -1.78125q-0.53125 -1.140625 -0.53125 -2.625q0 -1.453125 0.484375 -2.625q0.484375 -1.1875 1.4375 -1.8125q0.96875 -0.625 2.171875 -0.625q0.875 0 1.546875 0.375q0.6875 0.359375 1.109375 0.953125l0 -4.796875l1.640625 0l0 13.359375l-1.53125 0zm-5.171875 -4.828125q0 1.859375 0.78125 2.78125q0.78125 0.921875 1.84375 0.921875q1.078125 0 1.828125 -0.875q0.75 -0.890625 0.75 -2.6875q0 -1.984375 -0.765625 -2.90625q-0.765625 -0.9375 -1.890625 -0.9375q-1.078125 0 -1.8125 0.890625q-0.734375 0.890625 -0.734375 2.8125zm9.281967 -6.640625l0 -1.890625l1.640625 0l0 1.890625l-1.640625 0zm0 11.46875l0 -9.671875l1.640625 0l0 9.671875l-1.640625 0zm7.722946 -1.46875l0.234375 1.453125q-0.6875 0.140625 -1.234375 0.140625q-0.890625 0 -1.390625 -0.28125q-0.484375 -0.28125 -0.6875 -0.734375q-0.203125 -0.46875 -0.203125 -1.9375l0 -5.578125l-1.203125 0l0 -1.265625l1.203125 0l0 -2.390625l1.625 -0.984375l0 3.375l1.65625 0l0 1.265625l-1.65625 0l0 5.671875q0 0.6875 0.078125 0.890625q0.09375 0.203125 0.28125 0.328125q0.203125 0.109375 0.578125 0.109375q0.265625 0 0.71875 -0.0625zm1.6051788 -10.0l0 -1.890625l1.640625 0l0 1.890625l-1.640625 0zm0 11.46875l0 -9.671875l1.640625 0l0 9.671875l-1.640625 0zm3.5354462 -4.84375q0 -2.6875 1.484375 -3.96875q1.25 -1.078125 3.046875 -1.078125q2.0 0 3.265625 1.3125q1.265625 1.296875 1.265625 3.609375q0 1.859375 -0.5625 2.9375q-0.5625 1.0625 -1.640625 1.65625q-1.0625 0.59375 -2.328125 0.59375q-2.03125 0 -3.28125 -1.296875q-1.25 -1.3125 -1.25 -3.765625zm1.6875 0q0 1.859375 0.796875 2.796875q0.8125 0.921875 2.046875 0.921875q1.21875 0 2.03125 -0.921875q0.8125 -0.9375 0.8125 -2.84375q0 -1.796875 -0.8125 -2.71875q-0.8125 -0.921875 -2.03125 -0.921875q-1.234375 0 -2.046875 0.921875q-0.796875 0.90625 -0.796875 2.765625zm9.297592 4.84375l0 -9.671875l1.46875 0l0 1.375q1.0625 -1.59375 3.078125 -1.59375q0.875 0 1.609375 0.3125q0.734375 0.3125 1.09375 0.828125q0.375 0.5 0.515625 1.203125q0.09375 0.453125 0.09375 1.59375l0 5.953125l-1.640625 0l0 -5.890625q0 -1.0 -0.203125 -1.484375q-0.1875 -0.5 -0.671875 -0.796875q-0.484375 -0.296875 -1.140625 -0.296875q-1.046875 0 -1.8125 0.671875q-0.75 0.65625 -0.75 2.515625l0 5.28125l-1.640625 0zm23.715271 -1.578125l0 1.578125l-8.828125 0q-0.015625 -0.59375 0.1875 -1.140625q0.34375 -0.90625 1.078125 -1.78125q0.75 -0.875 2.15625 -2.015625q2.171875 -1.78125 2.9375 -2.828125q0.765625 -1.046875 0.765625 -1.96875q0 -0.984375 -0.703125 -1.640625q-0.6875 -0.671875 -1.8125 -0.671875q-1.1875 0 -1.90625 0.71875q-0.703125 0.703125 -0.703125 1.953125l-1.6875 -0.171875q0.171875 -1.890625 1.296875 -2.875q1.140625 -0.984375 3.03125 -0.984375q1.921875 0 3.046875 1.0625q1.125 1.0625 1.125 2.640625q0 0.796875 -0.328125 1.578125q-0.328125 0.78125 -1.09375 1.640625q-0.75 0.84375 -2.53125 2.34375q-1.46875 1.234375 -1.890625 1.6875q-0.421875 0.4375 -0.6875 0.875l6.546875 0z" fill-rule="nonzero"/><path fill="#000000" d="m342.4559 347.60367c-7.299652 0 -13.990997 2.4894714 -20.074066 7.4684143c-6.0704956 4.9602356 -10.755096 12.232117 -14.053741 21.815674c-3.2861023 9.564819 -4.9291687 20.776794 -4.9291687 33.635956c0 11.792236 1.454956 22.826416 4.364746 33.10251c2.9223938 10.276123 7.1742554 18.128235 12.755615 23.556427c5.5939026 5.4094543 12.84967 8.114197 21.767303 8.114197c8.616608 0 15.903717 -3.518982 21.861359 -10.556885c5.970154 -7.0566406 10.102875 -17.295288 12.398132 -30.715973l-10.949493 -4.127289c-1.5050964 10.388397 -4.383545 18.221832 -8.635437 23.500244c-4.2518616 5.2784424 -9.444397 7.9176636 -15.577606 7.9176636c-5.042053 0 -9.726624 -1.9373169 -14.053741 -5.8118896c-4.327118 -3.8746033 -7.519165 -9.723938 -9.576111 -17.548004c-2.044403 -7.8427734 -3.0666199 -17.014526 -3.0666199 -27.515228c0 -8.142273 0.8654175 -16.041199 2.596283 -23.696777c1.730835 -7.6743164 4.728485 -13.785706 8.992889 -18.334137c4.276947 -4.5484314 9.59491 -6.8226624 15.953888 -6.8226624c5.531189 0 10.121704 2.049591 13.771545 6.1488037c3.6498108 4.0992126 6.4342346 10.641113 8.35321 19.625671l10.780182 -3.7903748c-2.2200012 -11.39917 -6.1520386 -20.243347 -11.796112 -26.532532c-5.6440735 -6.289215 -12.605072 -9.433807 -20.883057 -9.433807z" fill-rule="evenodd"/><path fill="#000000" d="m413.06323 394.26727c5.0043945 0 9.187286 2.8544617 12.548645 8.563416c3.3738708 5.690216 5.060852 14.066467 5.060852 25.128693c0 11.7361145 -1.674408 20.467987 -5.023224 26.195648c-3.348816 5.727661 -7.5442505 8.591492 -12.586273 8.591492c-5.0796814 0 -9.293915 -2.8451233 -12.642731 -8.535339c-3.348816 -5.708954 -5.023224 -14.291077 -5.023224 -25.746399c0 -11.455322 1.674408 -20.018738 5.023224 -25.690247c3.348816 -5.671509 7.5630493 -8.507263 12.642731 -8.507263zm0 -12.5503235c-7.412567 0 -13.696289 3.3130493 -18.851196 9.939178c-6.170868 7.973816 -9.256287 20.243347 -9.256287 36.808655c0 15.105286 2.5837402 26.672913 7.75119 34.70288c5.1799927 8.029968 11.965424 12.044922 20.356293 12.044922c5.2301636 0 10.052704 -1.8249817 14.467621 -5.474945c4.4274597 -3.649994 7.7950745 -8.769318 10.102875 -15.358002c2.320343 -6.607422 3.4805298 -15.66684 3.4805298 -27.178314c0 -14.206848 -2.6150818 -25.334595 -7.845276 -33.38327c-5.2301636 -8.067413 -11.965424 -12.101105 -20.20575 -12.101105z" fill-rule="evenodd"/><path fill="#000000" d="m480.2841 381.71695c-3.9884644 0 -7.54422 1.3383179 -10.667297 4.014984c-3.1230469 2.6579285 -5.625244 6.17688 -7.506592 10.556854l0 -12.550293l-9.086975 0l0 89.452576l10.159332 0l0 -46.41089c0 -8.142273 0.54559326 -14.375305 1.6367798 -18.699127c1.0911865 -4.323822 2.847107 -7.6088257 5.2677917 -9.85495c2.4332275 -2.2461548 5.0796814 -3.3692322 7.939331 -3.3692322c3.7627258 0 6.471863 1.6846008 8.127472 5.053833c1.6555786 3.3692017 2.4833984 8.423035 2.4833984 15.161438l0 58.118927l10.159302 0l0 -51.970093c0 -9.209198 1.3922119 -15.900818 4.1766357 -20.07489c2.7843933 -4.19281 6.283722 -6.289215 10.497986 -6.289215c2.3328857 0 4.364746 0.8142395 6.095581 2.442688c1.730835 1.6284485 2.9223633 3.7810059 3.574585 6.457672c0.6647339 2.6579285 0.9970703 7.019165 0.9970703 13.083771l0 56.350067l10.102905 0l0 -61.4039c0 -10.21994 -1.5991211 -17.781952 -4.7974243 -22.686035c-3.1983032 -4.9227905 -7.7700195 -7.384186 -13.715088 -7.384186c-7.600708 0 -13.771545 5.22229 -18.512573 15.66684c-1.1664429 -4.941498 -3.1732178 -8.788025 -6.020355 -11.539551c-2.8345642 -2.7515259 -6.471863 -4.127289 -10.911865 -4.127289z" fill-rule="evenodd"/><path fill="#000000" d="m549.3675 349.70944l0 17.435669l10.159363 0l0 -17.435669zm0 34.029053l0 89.452576l10.159363 0l0 -89.452576z" fill-rule="evenodd"/><path fill="#000000" d="m603.2119 381.71695c-8.315552 0 -14.674561 4.913452 -19.076904 14.740295l0 -12.71875l-9.143433 0l0 89.452576l10.159363 0l0 -48.853577c0 -11.455322 1.567749 -19.232605 4.703369 -23.331787c3.1481323 -4.0992126 6.885742 -6.148834 11.212891 -6.148834c2.7091675 0 5.0671387 0.9171753 7.0739136 2.7515259c2.019287 1.8156433 3.4240723 4.2583313 4.2142334 7.3280334c0.79016113 3.0510254 1.1852417 7.664978 1.1852417 13.841858l0 54.41278l10.159302 0l0 -55.00238c0 -7.0191956 -0.18811035 -11.932648 -0.5643921 -14.740326c-0.6020508 -4.323822 -1.6555786 -8.058014 -3.1606445 -11.202637c-1.505127 -3.1445923 -3.7752686 -5.680847 -6.810547 -7.608795c-3.022705 -1.9466553 -6.340149 -2.919983 -9.952393 -2.919983z" fill-rule="evenodd"/><path fill="#000000" d="m662.0796 394.26727c4.590515 0 8.51001 2.779602 11.758484 8.338806c3.2609863 5.559204 4.8915405 13.813751 4.8915405 24.763702c0 11.455322 -1.5803833 19.868988 -4.741028 25.241028c-3.1607056 5.353302 -7.0739136 8.029938 -11.739685 8.029938c-4.703369 0 -8.616577 -2.6953735 -11.739624 -8.08609c-3.123108 -5.390747 -4.6846313 -13.954163 -4.6846313 -25.690247c0 -10.781494 1.5803833 -18.90503 4.741028 -24.370636c3.1607056 -5.4843445 6.998657 -8.226501 11.513916 -8.226501zm-0.7337036 -12.5503235c-5.30542 0 -9.927307 1.9653625 -13.865601 5.896118c-3.9257812 3.9307556 -6.923401 9.508667 -8.99292 16.733765c-2.069458 7.20636 -3.104248 15.077209 -3.104248 23.612549c0 12.409943 2.2576294 23.051056 6.772888 31.92331c4.515259 8.872253 10.893066 13.30838 19.133423 13.30838c6.6223755 0 12.153564 -3.9026794 16.593567 -11.708008l0 0c0.037597656 9.883026 -0.20697021 16.368744 -0.73376465 19.457184c-0.90301514 5.053833 -2.63385 8.984589 -5.192505 11.792267c-2.5586548 2.8076782 -6.1896973 4.2115173 -10.893066 4.2115173c-4.364746 0 -7.807617 -1.4038391 -10.328674 -4.2115173c-1.8813477 -2.0776978 -3.0289307 -5.390747 -3.442871 -9.939178l-9.877136 -2.1900024l0 0c-0.15045166 9.658417 1.9754639 16.883514 6.3778076 21.675262c4.402405 4.8105164 10.178162 7.2157288 17.327332 7.2157288c6.0203247 0 11.087463 -1.6846008 15.201355 -5.0538025c4.126404 -3.3692017 7.1365967 -7.964447 9.030518 -13.785706c1.9064331 -5.8025208 2.8596191 -15.66684 2.8596191 -29.592896l0 -77.323425l-9.369141 0l0 10.781464c-4.590515 -8.535339 -10.4227295 -12.803009 -17.496582 -12.803009z" fill-rule="evenodd"/><path fill="#000000" d="m765.5354 347.60367c-5.5688477 0 -10.6297 1.4038391 -15.182556 4.2115173c-4.5528564 2.8076782 -8.014587 6.925598 -10.385071 12.35379c-2.3705444 5.4094543 -3.5557861 11.230713 -3.5557861 17.463745c0 5.671509 0.9657593 10.800201 2.8972778 15.386078c1.9440918 4.5671387 4.8915405 8.3949585 8.842407 11.483398c3.0477905 2.4146118 8.372009 4.988312 15.972717 7.7211c7.600647 2.7141113 12.510986 4.716919 14.731018 6.008423c3.46167 1.9653931 5.9450684 4.398712 7.4501953 7.299988c1.5050659 2.8825378 2.2575684 6.2611084 2.2575684 10.135712c0 3.8184204 -0.7838745 7.3467407 -2.3516846 10.58493c-1.5552368 3.219452 -3.9320068 5.7557373 -7.13031 7.608795c-3.1983032 1.8530884 -6.885803 2.779602 -11.062378 2.779602c-4.70343 0 -8.936462 -1.2166443 -12.699158 -3.6499634c-3.7627563 -2.452057 -6.5408325 -5.6528015 -8.334412 -9.602264c-1.7810059 -3.9682007 -2.9161377 -9.04071 -3.4052734 -15.217621l-10.328613 1.3476868c0.15045166 8.254578 1.6618652 15.657471 4.5340576 22.20874c2.8847046 6.5325317 6.85437 11.427246 11.908997 14.684143c5.0670776 3.256897 11.344543 4.885376 18.832336 4.885376c5.9074707 0 11.219177 -1.6097412 15.93512 -4.8292236c4.7284546 -3.2381897 8.35321 -7.758545 10.874207 -13.561066c2.5210571 -5.8212585 3.7815552 -12.016876 3.7815552 -18.586823c0 -6.626129 -1.147644 -12.475464 -3.442871 -17.548004c-2.295288 -5.0912476 -5.851013 -9.293396 -10.667297 -12.606445c-3.3112183 -2.2461548 -9.419312 -4.866638 -18.324402 -7.861511c-8.892578 -3.0135803 -14.392395 -5.9522705 -16.499512 -8.816101c-2.1447754 -2.8638306 -3.217102 -6.5138245 -3.217102 -10.949951c0 -5.109955 1.5113525 -9.471222 4.5340576 -13.083771c3.0352173 -3.631256 7.8640747 -5.4468994 14.48645 -5.4468994c6.3589478 0 11.16272 1.9934692 14.411194 5.980377c3.2609863 3.9868774 5.173706 9.882996 5.738098 17.688354l10.497986 -1.1792297c-0.18811035 -7.243805 -1.5427246 -13.729553 -4.0637207 -19.457214c-2.520996 -5.727661 -6.126953 -10.060822 -10.81781 -12.999542c-4.6782837 -2.9573975 -10.084045 -4.4361267 -16.217285 -4.4361267z" fill-rule="evenodd"/><path fill="#000000" d="m837.10223 394.26727c5.0043945 0 9.187256 2.8544617 12.548645 8.563416c3.3738403 5.690216 5.060852 14.066467 5.060852 25.128693c0 11.7361145 -1.6744385 20.467987 -5.0232544 26.195648c-3.348816 5.727661 -7.5442505 8.591492 -12.586243 8.591492c-5.079712 0 -9.293945 -2.8451233 -12.642761 -8.535339c-3.348816 -5.708954 -5.0231934 -14.291077 -5.0231934 -25.746399c0 -11.455322 1.6743774 -20.018738 5.0231934 -25.690247c3.348816 -5.671509 7.5630493 -8.507263 12.642761 -8.507263zm0 -12.5503235c-7.4125977 0 -13.696289 3.3130493 -18.851196 9.939178c-6.1708984 7.973816 -9.256287 20.243347 -9.256287 36.808655c0 15.105286 2.5837402 26.672913 7.7511597 34.70288c5.1799927 8.029968 11.965454 12.044922 20.356323 12.044922c5.2301636 0 10.052673 -1.8249817 14.46759 -5.474945c4.42749 -3.649994 7.795105 -8.769318 10.102905 -15.358002c2.3203125 -6.607422 3.4805298 -15.66684 3.4805298 -27.178314c0 -14.206848 -2.6151123 -25.334595 -7.845276 -33.38327c-5.2301636 -8.067413 -11.965454 -12.101105 -20.20575 -12.101105z" fill-rule="evenodd"/><path fill="#000000" d="m901.3882 394.26727c5.0043945 0 9.187256 2.8544617 12.548645 8.563416c3.3739014 5.690216 5.060852 14.066467 5.060852 25.128693c0 11.7361145 -1.6744385 20.467987 -5.0232544 26.195648c-3.348816 5.727661 -7.5442505 8.591492 -12.586243 8.591492c-5.079712 0 -9.293945 -2.8451233 -12.642761 -8.535339c-3.348816 -5.708954 -5.0231934 -14.291077 -5.0231934 -25.746399c0 -11.455322 1.6743774 -20.018738 5.0231934 -25.690247c3.348816 -5.671509 7.5630493 -8.507263 12.642761 -8.507263zm0 -12.5503235c-7.4125977 0 -13.696289 3.3130493 -18.851196 9.939178c-6.1708984 7.973816 -9.256287 20.243347 -9.256287 36.808655c0 15.105286 2.5837402 26.672913 7.7511597 34.70288c5.1799927 8.029968 11.965454 12.044922 20.356323 12.044922c5.2301636 0 10.052673 -1.8249817 14.46759 -5.474945c4.42749 -3.649994 7.795105 -8.769318 10.102905 -15.358002c2.3203125 -6.607422 3.4805298 -15.66684 3.4805298 -27.178314c0 -14.206848 -2.6151123 -25.334595 -7.845276 -33.38327c-5.2301636 -8.067413 -11.965454 -12.101105 -20.20575 -12.101105z" fill-rule="evenodd"/><path fill="#000000" d="m969.56854 381.71695c-8.315613 0 -14.674622 4.913452 -19.076965 14.740295l0 -12.71875l-9.143372 0l0 89.452576l10.159302 0l0 -48.853577c0 -11.455322 1.56781 -19.232605 4.703369 -23.331787c3.1481323 -4.0992126 6.885803 -6.148834 11.212891 -6.148834c2.7091675 0 5.0671387 0.9171753 7.0739136 2.7515259c2.0193481 1.8156433 3.4240723 4.2583313 4.2142334 7.3280334c0.79016113 3.0510254 1.1852417 7.664978 1.1852417 13.841858l0 54.41278l10.159363 0l0 -55.00238c0 -7.0191956 -0.18817139 -11.932648 -0.5644531 -14.740326c-0.60198975 -4.323822 -1.6555786 -8.058014 -3.1606445 -11.202637c-1.5050659 -3.1445923 -3.7752686 -5.680847 -6.810547 -7.608795c-3.022644 -1.9466553 -6.340149 -2.919983 -9.952332 -2.919983z" fill-rule="evenodd"/><path fill="#000000" d="m1007.9482 349.70944l0 27.374847l3.104248 65.44696l6.547119 0l2.9349365 -65.44696l0 -27.374847zm0.4515381 106.21442l0 17.267212l11.683228 0l0 -17.267212z" fill-rule="evenodd"/><path stroke="#000000" stroke-width="1.0" stroke-linejoin="round" stroke-linecap="butt" d="m342.4559 347.60367c-7.299652 0 -13.990997 2.4894714 -20.074066 7.4684143c-6.0704956 4.9602356 -10.755096 12.232117 -14.053741 21.815674c-3.2861023 9.564819 -4.9291687 20.776794 -4.9291687 33.635956c0 11.792236 1.454956 22.826416 4.364746 33.10251c2.9223938 10.276123 7.1742554 18.128235 12.755615 23.556427c5.5939026 5.4094543 12.84967 8.114197 21.767303 8.114197c8.616608 0 15.903717 -3.518982 21.861359 -10.556885c5.970154 -7.0566406 10.102875 -17.295288 12.398132 -30.715973l-10.949493 -4.127289c-1.5050964 10.388397 -4.383545 18.221832 -8.635437 23.500244c-4.2518616 5.2784424 -9.444397 7.9176636 -15.577606 7.9176636c-5.042053 0 -9.726624 -1.9373169 -14.053741 -5.8118896c-4.327118 -3.8746033 -7.519165 -9.723938 -9.576111 -17.548004c-2.044403 -7.8427734 -3.0666199 -17.014526 -3.0666199 -27.515228c0 -8.142273 0.8654175 -16.041199 2.596283 -23.696777c1.730835 -7.6743164 4.728485 -13.785706 8.992889 -18.334137c4.276947 -4.5484314 9.59491 -6.8226624 15.953888 -6.8226624c5.531189 0 10.121704 2.049591 13.771545 6.1488037c3.6498108 4.0992126 6.4342346 10.641113 8.35321 19.625671l10.780182 -3.7903748c-2.2200012 -11.39917 -6.1520386 -20.243347 -11.796112 -26.532532c-5.6440735 -6.289215 -12.605072 -9.433807 -20.883057 -9.433807z" fill-rule="evenodd"/><path stroke="#000000" stroke-width="1.0" stroke-linejoin="round" stroke-linecap="butt" d="m413.06323 394.26727c5.0043945 0 9.187286 2.8544617 12.548645 8.563416c3.3738708 5.690216 5.060852 14.066467 5.060852 25.128693c0 11.7361145 -1.674408 20.467987 -5.023224 26.195648c-3.348816 5.727661 -7.5442505 8.591492 -12.586273 8.591492c-5.0796814 0 -9.293915 -2.8451233 -12.642731 -8.535339c-3.348816 -5.708954 -5.023224 -14.291077 -5.023224 -25.746399c0 -11.455322 1.674408 -20.018738 5.023224 -25.690247c3.348816 -5.671509 7.5630493 -8.507263 12.642731 -8.507263zm0 -12.5503235c-7.412567 0 -13.696289 3.3130493 -18.851196 9.939178c-6.170868 7.973816 -9.256287 20.243347 -9.256287 36.808655c0 15.105286 2.5837402 26.672913 7.75119 34.70288c5.1799927 8.029968 11.965424 12.044922 20.356293 12.044922c5.2301636 0 10.052704 -1.8249817 14.467621 -5.474945c4.4274597 -3.649994 7.7950745 -8.769318 10.102875 -15.358002c2.320343 -6.607422 3.4805298 -15.66684 3.4805298 -27.178314c0 -14.206848 -2.6150818 -25.334595 -7.845276 -33.38327c-5.2301636 -8.067413 -11.965424 -12.101105 -20.20575 -12.101105z" fill-rule="evenodd"/><path stroke="#000000" stroke-width="1.0" stroke-linejoin="round" stroke-linecap="butt" d="m480.2841 381.71695c-3.9884644 0 -7.54422 1.3383179 -10.667297 4.014984c-3.1230469 2.6579285 -5.625244 6.17688 -7.506592 10.556854l0 -12.550293l-9.086975 0l0 89.452576l10.159332 0l0 -46.41089c0 -8.142273 0.54559326 -14.375305 1.6367798 -18.699127c1.0911865 -4.323822 2.847107 -7.6088257 5.2677917 -9.85495c2.4332275 -2.2461548 5.0796814 -3.3692322 7.939331 -3.3692322c3.7627258 0 6.471863 1.6846008 8.127472 5.053833c1.6555786 3.3692017 2.4833984 8.423035 2.4833984 15.161438l0 58.118927l10.159302 0l0 -51.970093c0 -9.209198 1.3922119 -15.900818 4.1766357 -20.07489c2.7843933 -4.19281 6.283722 -6.289215 10.497986 -6.289215c2.3328857 0 4.364746 0.8142395 6.095581 2.442688c1.730835 1.6284485 2.9223633 3.7810059 3.574585 6.457672c0.6647339 2.6579285 0.9970703 7.019165 0.9970703 13.083771l0 56.350067l10.102905 0l0 -61.4039c0 -10.21994 -1.5991211 -17.781952 -4.7974243 -22.686035c-3.1983032 -4.9227905 -7.7700195 -7.384186 -13.715088 -7.384186c-7.600708 0 -13.771545 5.22229 -18.512573 15.66684c-1.1664429 -4.941498 -3.1732178 -8.788025 -6.020355 -11.539551c-2.8345642 -2.7515259 -6.471863 -4.127289 -10.911865 -4.127289z" fill-rule="evenodd"/><path stroke="#000000" stroke-width="1.0" stroke-linejoin="round" stroke-linecap="butt" d="m549.3675 349.70944l0 17.435669l10.159363 0l0 -17.435669zm0 34.029053l0 89.452576l10.159363 0l0 -89.452576z" fill-rule="evenodd"/><path stroke="#000000" stroke-width="1.0" stroke-linejoin="round" stroke-linecap="butt" d="m603.2119 381.71695c-8.315552 0 -14.674561 4.913452 -19.076904 14.740295l0 -12.71875l-9.143433 0l0 89.452576l10.159363 0l0 -48.853577c0 -11.455322 1.567749 -19.232605 4.703369 -23.331787c3.1481323 -4.0992126 6.885742 -6.148834 11.212891 -6.148834c2.7091675 0 5.0671387 0.9171753 7.0739136 2.7515259c2.019287 1.8156433 3.4240723 4.2583313 4.2142334 7.3280334c0.79016113 3.0510254 1.1852417 7.664978 1.1852417 13.841858l0 54.41278l10.159302 0l0 -55.00238c0 -7.0191956 -0.18811035 -11.932648 -0.5643921 -14.740326c-0.6020508 -4.323822 -1.6555786 -8.058014 -3.1606445 -11.202637c-1.505127 -3.1445923 -3.7752686 -5.680847 -6.810547 -7.608795c-3.022705 -1.9466553 -6.340149 -2.919983 -9.952393 -2.919983z" fill-rule="evenodd"/><path stroke="#000000" stroke-width="1.0" stroke-linejoin="round" stroke-linecap="butt" d="m662.0796 394.26727c4.590515 0 8.51001 2.779602 11.758484 8.338806c3.2609863 5.559204 4.8915405 13.813751 4.8915405 24.763702c0 11.455322 -1.5803833 19.868988 -4.741028 25.241028c-3.1607056 5.353302 -7.0739136 8.029938 -11.739685 8.029938c-4.703369 0 -8.616577 -2.6953735 -11.739624 -8.08609c-3.123108 -5.390747 -4.6846313 -13.954163 -4.6846313 -25.690247c0 -10.781494 1.5803833 -18.90503 4.741028 -24.370636c3.1607056 -5.4843445 6.998657 -8.226501 11.513916 -8.226501zm-0.7337036 -12.5503235c-5.30542 0 -9.927307 1.9653625 -13.865601 5.896118c-3.9257812 3.9307556 -6.923401 9.508667 -8.99292 16.733765c-2.069458 7.20636 -3.104248 15.077209 -3.104248 23.612549c0 12.409943 2.2576294 23.051056 6.772888 31.92331c4.515259 8.872253 10.893066 13.30838 19.133423 13.30838c6.6223755 0 12.153564 -3.9026794 16.593567 -11.708008l0 0c0.037597656 9.883026 -0.20697021 16.368744 -0.73376465 19.457184c-0.90301514 5.053833 -2.63385 8.984589 -5.192505 11.792267c-2.5586548 2.8076782 -6.1896973 4.2115173 -10.893066 4.2115173c-4.364746 0 -7.807617 -1.4038391 -10.328674 -4.2115173c-1.8813477 -2.0776978 -3.0289307 -5.390747 -3.442871 -9.939178l-9.877136 -2.1900024l0 0c-0.15045166 9.658417 1.9754639 16.883514 6.3778076 21.675262c4.402405 4.8105164 10.178162 7.2157288 17.327332 7.2157288c6.0203247 0 11.087463 -1.6846008 15.201355 -5.0538025c4.126404 -3.3692017 7.1365967 -7.964447 9.030518 -13.785706c1.9064331 -5.8025208 2.8596191 -15.66684 2.8596191 -29.592896l0 -77.323425l-9.369141 0l0 10.781464c-4.590515 -8.535339 -10.4227295 -12.803009 -17.496582 -12.803009z" fill-rule="evenodd"/><path stroke="#000000" stroke-width="1.0" stroke-linejoin="round" stroke-linecap="butt" d="m765.5354 347.60367c-5.5688477 0 -10.6297 1.4038391 -15.182556 4.2115173c-4.5528564 2.8076782 -8.014587 6.925598 -10.385071 12.35379c-2.3705444 5.4094543 -3.5557861 11.230713 -3.5557861 17.463745c0 5.671509 0.9657593 10.800201 2.8972778 15.386078c1.9440918 4.5671387 4.8915405 8.3949585 8.842407 11.483398c3.0477905 2.4146118 8.372009 4.988312 15.972717 7.7211c7.600647 2.7141113 12.510986 4.716919 14.731018 6.008423c3.46167 1.9653931 5.9450684 4.398712 7.4501953 7.299988c1.5050659 2.8825378 2.2575684 6.2611084 2.2575684 10.135712c0 3.8184204 -0.7838745 7.3467407 -2.3516846 10.58493c-1.5552368 3.219452 -3.9320068 5.7557373 -7.13031 7.608795c-3.1983032 1.8530884 -6.885803 2.779602 -11.062378 2.779602c-4.70343 0 -8.936462 -1.2166443 -12.699158 -3.6499634c-3.7627563 -2.452057 -6.5408325 -5.6528015 -8.334412 -9.602264c-1.7810059 -3.9682007 -2.9161377 -9.04071 -3.4052734 -15.217621l-10.328613 1.3476868c0.15045166 8.254578 1.6618652 15.657471 4.5340576 22.20874c2.8847046 6.5325317 6.85437 11.427246 11.908997 14.684143c5.0670776 3.256897 11.344543 4.885376 18.832336 4.885376c5.9074707 0 11.219177 -1.6097412 15.93512 -4.8292236c4.7284546 -3.2381897 8.35321 -7.758545 10.874207 -13.561066c2.5210571 -5.8212585 3.7815552 -12.016876 3.7815552 -18.586823c0 -6.626129 -1.147644 -12.475464 -3.442871 -17.548004c-2.295288 -5.0912476 -5.851013 -9.293396 -10.667297 -12.606445c-3.3112183 -2.2461548 -9.419312 -4.866638 -18.324402 -7.861511c-8.892578 -3.0135803 -14.392395 -5.9522705 -16.499512 -8.816101c-2.1447754 -2.8638306 -3.217102 -6.5138245 -3.217102 -10.949951c0 -5.109955 1.5113525 -9.471222 4.5340576 -13.083771c3.0352173 -3.631256 7.8640747 -5.4468994 14.48645 -5.4468994c6.3589478 0 11.16272 1.9934692 14.411194 5.980377c3.2609863 3.9868774 5.173706 9.882996 5.738098 17.688354l10.497986 -1.1792297c-0.18811035 -7.243805 -1.5427246 -13.729553 -4.0637207 -19.457214c-2.520996 -5.727661 -6.126953 -10.060822 -10.81781 -12.999542c-4.6782837 -2.9573975 -10.084045 -4.4361267 -16.217285 -4.4361267z" fill-rule="evenodd"/><path stroke="#000000" stroke-width="1.0" stroke-linejoin="round" stroke-linecap="butt" d="m837.10223 394.26727c5.0043945 0 9.187256 2.8544617 12.548645 8.563416c3.3738403 5.690216 5.060852 14.066467 5.060852 25.128693c0 11.7361145 -1.6744385 20.467987 -5.0232544 26.195648c-3.348816 5.727661 -7.5442505 8.591492 -12.586243 8.591492c-5.079712 0 -9.293945 -2.8451233 -12.642761 -8.535339c-3.348816 -5.708954 -5.0231934 -14.291077 -5.0231934 -25.746399c0 -11.455322 1.6743774 -20.018738 5.0231934 -25.690247c3.348816 -5.671509 7.5630493 -8.507263 12.642761 -8.507263zm0 -12.5503235c-7.4125977 0 -13.696289 3.3130493 -18.851196 9.939178c-6.1708984 7.973816 -9.256287 20.243347 -9.256287 36.808655c0 15.105286 2.5837402 26.672913 7.7511597 34.70288c5.1799927 8.029968 11.965454 12.044922 20.356323 12.044922c5.2301636 0 10.052673 -1.8249817 14.46759 -5.474945c4.42749 -3.649994 7.795105 -8.769318 10.102905 -15.358002c2.3203125 -6.607422 3.4805298 -15.66684 3.4805298 -27.178314c0 -14.206848 -2.6151123 -25.334595 -7.845276 -33.38327c-5.2301636 -8.067413 -11.965454 -12.101105 -20.20575 -12.101105z" fill-rule="evenodd"/><path stroke="#000000" stroke-width="1.0" stroke-linejoin="round" stroke-linecap="butt" d="m901.3882 394.26727c5.0043945 0 9.187256 2.8544617 12.548645 8.563416c3.3739014 5.690216 5.060852 14.066467 5.060852 25.128693c0 11.7361145 -1.6744385 20.467987 -5.0232544 26.195648c-3.348816 5.727661 -7.5442505 8.591492 -12.586243 8.591492c-5.079712 0 -9.293945 -2.8451233 -12.642761 -8.535339c-3.348816 -5.708954 -5.0231934 -14.291077 -5.0231934 -25.746399c0 -11.455322 1.6743774 -20.018738 5.0231934 -25.690247c3.348816 -5.671509 7.5630493 -8.507263 12.642761 -8.507263zm0 -12.5503235c-7.4125977 0 -13.696289 3.3130493 -18.851196 9.939178c-6.1708984 7.973816 -9.256287 20.243347 -9.256287 36.808655c0 15.105286 2.5837402 26.672913 7.7511597 34.70288c5.1799927 8.029968 11.965454 12.044922 20.356323 12.044922c5.2301636 0 10.052673 -1.8249817 14.46759 -5.474945c4.42749 -3.649994 7.795105 -8.769318 10.102905 -15.358002c2.3203125 -6.607422 3.4805298 -15.66684 3.4805298 -27.178314c0 -14.206848 -2.6151123 -25.334595 -7.845276 -33.38327c-5.2301636 -8.067413 -11.965454 -12.101105 -20.20575 -12.101105z" fill-rule="evenodd"/><path stroke="#000000" stroke-width="1.0" stroke-linejoin="round" stroke-linecap="butt" d="m969.56854 381.71695c-8.315613 0 -14.674622 4.913452 -19.076965 14.740295l0 -12.71875l-9.143372 0l0 89.452576l10.159302 0l0 -48.853577c0 -11.455322 1.56781 -19.232605 4.703369 -23.331787c3.1481323 -4.0992126 6.885803 -6.148834 11.212891 -6.148834c2.7091675 0 5.0671387 0.9171753 7.0739136 2.7515259c2.0193481 1.8156433 3.4240723 4.2583313 4.2142334 7.3280334c0.79016113 3.0510254 1.1852417 7.664978 1.1852417 13.841858l0 54.41278l10.159363 0l0 -55.00238c0 -7.0191956 -0.18817139 -11.932648 -0.5644531 -14.740326c-0.60198975 -4.323822 -1.6555786 -8.058014 -3.1606445 -11.202637c-1.5050659 -3.1445923 -3.7752686 -5.680847 -6.810547 -7.608795c-3.022644 -1.9466553 -6.340149 -2.919983 -9.952332 -2.919983z" fill-rule="evenodd"/><path stroke="#000000" stroke-width="1.0" stroke-linejoin="round" stroke-linecap="butt" d="m1007.9482 349.70944l0 27.374847l3.104248 65.44696l6.547119 0l2.9349365 -65.44696l0 -27.374847zm0.4515381 106.21442l0 17.267212l11.683228 0l0 -17.267212z" fill-rule="evenodd"/></g></svg>