<svg version="1.1" viewBox="0.0 0.0 960.0 720.0" fill="none" stroke="none" stroke-linecap="square" stroke-miterlimit="10" xmlns:xlink="http://www.w3.org/1999/xlink" xmlns="http://www.w3.org/2000/svg"><clipPath id="p.0"><path d="m0 0l960.0 0l0 720.0l-960.0 0l0 -720.0z" clip-rule="nonzero"/></clipPath><g clip-path="url(#p.0)"><path fill="#000000" fill-opacity="0.0" d="m0 0l960.0 0l0 720.0l-960.0 0z" fill-rule="evenodd"/><path shape-rendering="crispEdges" fill="#f9cb9c" d="m22.023623 60.37008l114.49344 0l0 261.6168l-114.49344 0l0 -261.6168z" fill-rule="nonzero"/><path shape-rendering="crispEdges" fill="#f9cb9c" d="m136.51706 60.37008l114.49344 0l0 85.196846l-114.49344 0l0 -85.196846z" fill-rule="nonzero"/><path shape-rendering="crispEdges" fill="#f9cb9c" d="m251.0105 60.37008l114.49344 0l0 85.196846l-114.49344 0l0 -85.196846z" fill-rule="nonzero"/><path shape-rendering="crispEdges" fill="#f9cb9c" d="m365.50394 60.37008l113.9895 0l0 85.196846l-113.9895 0l0 -85.196846z" fill-rule="nonzero"/><path shape-rendering="crispEdges" fill="#f9cb9c" d="m479.49344 60.37008l114.99997 0l0 85.196846l-114.99997 0l0 -85.196846z" fill-rule="nonzero"/><path shape-rendering="crispEdges" fill="#f9cb9c" d="m594.4934 60.37008l114.49347 0l0 85.196846l-114.49347 0l0 -85.196846z" fill-rule="nonzero"/><path shape-rendering="crispEdges" fill="#f9cb9c" d="m708.9869 60.37008l114.49341 0l0 85.196846l-114.49341 0l0 -85.196846z" fill-rule="nonzero"/><path shape-rendering="crispEdges" fill="#f9cb9c" d="m823.4803 60.37008l114.49347 0l0 85.196846l-114.49347 0l0 -85.196846z" fill-rule="nonzero"/><path shape-rendering="crispEdges" fill="#f9cb9c" d="m136.51706 145.56693l114.49344 0l0 42.12599l-114.49344 0l0 -42.12599z" fill-rule="nonzero"/><path shape-rendering="crispEdges" fill="#f9cb9c" d="m251.0105 145.56693l114.49344 0l0 42.12599l-114.49344 0l0 -42.12599z" fill-rule="nonzero"/><path shape-rendering="crispEdges" fill="#f9cb9c" d="m365.50394 145.56693l113.9895 0l0 42.12599l-113.9895 0l0 -42.12599z" fill-rule="nonzero"/><path shape-rendering="crispEdges" fill="#f9cb9c" d="m479.49344 145.56693l114.99997 0l0 42.12599l-114.99997 0l0 -42.12599z" fill-rule="nonzero"/><path shape-rendering="crispEdges" fill="#f9cb9c" d="m594.4934 145.56693l114.49347 0l0 42.12599l-114.49347 0l0 -42.12599z" fill-rule="nonzero"/><path shape-rendering="crispEdges" fill="#f9cb9c" d="m708.9869 145.56693l114.49341 0l0 42.12599l-114.49341 0l0 -42.12599z" fill-rule="nonzero"/><path shape-rendering="crispEdges" fill="#f9cb9c" d="m823.4803 145.56693l114.49347 0l0 42.12599l-114.49347 0l0 -42.12599z" fill-rule="nonzero"/><path shape-rendering="crispEdges" fill="#f9cb9c" d="m136.51706 187.69292l114.49344 0l0 42.125977l-114.49344 0l0 -42.125977z" fill-rule="nonzero"/><path shape-rendering="crispEdges" fill="#f9cb9c" d="m251.0105 187.69292l114.49344 0l0 42.125977l-114.49344 0l0 -42.125977z" fill-rule="nonzero"/><path shape-rendering="crispEdges" fill="#f9cb9c" d="m365.50394 187.69292l113.9895 0l0 42.125977l-113.9895 0l0 -42.125977z" fill-rule="nonzero"/><path shape-rendering="crispEdges" fill="#f9cb9c" d="m479.49344 187.69292l114.99997 0l0 42.125977l-114.99997 0l0 -42.125977z" fill-rule="nonzero"/><path shape-rendering="crispEdges" fill="#f9cb9c" d="m594.4934 187.69292l114.49347 0l0 42.125977l-114.49347 0l0 -42.125977z" fill-rule="nonzero"/><path shape-rendering="crispEdges" fill="#f9cb9c" d="m708.9869 187.69292l114.49341 0l0 42.125977l-114.49341 0l0 -42.125977z" fill-rule="nonzero"/><path shape-rendering="crispEdges" fill="#f9cb9c" d="m823.4803 187.69292l114.49347 0l0 42.125977l-114.49347 0l0 -42.125977z" fill-rule="nonzero"/><path shape-rendering="crispEdges" fill="#f9cb9c" d="m136.51706 229.8189l114.49344 0l0 42.12599l-114.49344 0l0 -42.12599z" fill-rule="nonzero"/><path shape-rendering="crispEdges" fill="#f9cb9c" d="m251.0105 229.8189l114.49344 0l0 42.12599l-114.49344 0l0 -42.12599z" fill-rule="nonzero"/><path shape-rendering="crispEdges" fill="#f9cb9c" d="m365.50394 229.8189l113.9895 0l0 42.12599l-113.9895 0l0 -42.12599z" fill-rule="nonzero"/><path shape-rendering="crispEdges" fill="#f9cb9c" d="m479.49344 229.8189l114.99997 0l0 42.12599l-114.99997 0l0 -42.12599z" fill-rule="nonzero"/><path shape-rendering="crispEdges" fill="#f9cb9c" d="m594.4934 229.8189l114.49347 0l0 42.12599l-114.49347 0l0 -42.12599z" fill-rule="nonzero"/><path shape-rendering="crispEdges" fill="#f9cb9c" d="m708.9869 229.8189l114.49341 0l0 42.12599l-114.49341 0l0 -42.12599z" fill-rule="nonzero"/><path shape-rendering="crispEdges" fill="#f9cb9c" d="m823.4803 229.8189l114.49347 0l0 42.12599l-114.49347 0l0 -42.12599z" fill-rule="nonzero"/><path shape-rendering="crispEdges" fill="#f9cb9c" d="m136.51706 271.9449l114.49344 0l0 50.041992l-114.49344 0l0 -50.041992z" fill-rule="nonzero"/><path shape-rendering="crispEdges" fill="#f9cb9c" d="m251.0105 271.9449l114.49344 0l0 50.041992l-114.49344 0l0 -50.041992z" fill-rule="nonzero"/><path shape-rendering="crispEdges" fill="#f9cb9c" d="m365.50394 271.9449l113.9895 0l0 50.041992l-113.9895 0l0 -50.041992z" fill-rule="nonzero"/><path shape-rendering="crispEdges" fill="#f9cb9c" d="m479.49344 271.9449l114.99997 0l0 50.041992l-114.99997 0l0 -50.041992z" fill-rule="nonzero"/><path shape-rendering="crispEdges" fill="#f9cb9c" d="m594.4934 271.9449l114.49347 0l0 50.041992l-114.49347 0l0 -50.041992z" fill-rule="nonzero"/><path shape-rendering="crispEdges" fill="#f9cb9c" d="m708.9869 271.9449l114.49341 0l0 50.041992l-114.49341 0l0 -50.041992z" fill-rule="nonzero"/><path shape-rendering="crispEdges" fill="#f9cb9c" d="m823.4803 271.9449l114.49347 0l0 50.041992l-114.49347 0l0 -50.041992z" fill-rule="nonzero"/><path shape-rendering="crispEdges" fill="#f6b26b" d="m22.023623 321.98688l114.49344 0l0 307.35956l-114.49344 0l0 -307.35956z" fill-rule="nonzero"/><path shape-rendering="crispEdges" fill="#f6b26b" d="m136.51706 321.98688l114.49344 0l0 42.125977l-114.49344 0l0 -42.125977z" fill-rule="nonzero"/><path shape-rendering="crispEdges" fill="#f6b26b" d="m251.0105 321.98688l114.49344 0l0 42.125977l-114.49344 0l0 -42.125977z" fill-rule="nonzero"/><path shape-rendering="crispEdges" fill="#f6b26b" d="m365.50394 321.98688l113.9895 0l0 42.125977l-113.9895 0l0 -42.125977z" fill-rule="nonzero"/><path shape-rendering="crispEdges" fill="#f6b26b" d="m479.49344 321.98688l114.99997 0l0 42.125977l-114.99997 0l0 -42.125977z" fill-rule="nonzero"/><path shape-rendering="crispEdges" fill="#f6b26b" d="m594.4934 321.98688l114.49347 0l0 42.125977l-114.49347 0l0 -42.125977z" fill-rule="nonzero"/><path shape-rendering="crispEdges" fill="#f6b26b" d="m708.9869 321.98688l114.49341 0l0 42.125977l-114.49341 0l0 -42.125977z" fill-rule="nonzero"/><path shape-rendering="crispEdges" fill="#f6b26b" d="m823.4803 321.98688l114.49347 0l0 42.125977l-114.49347 0l0 -42.125977z" fill-rule="nonzero"/><path shape-rendering="crispEdges" fill="#f6b26b" d="m136.51706 364.11285l114.49344 0l0 42.125977l-114.49344 0l0 -42.125977z" fill-rule="nonzero"/><path shape-rendering="crispEdges" fill="#f6b26b" d="m251.0105 364.11285l114.49344 0l0 42.125977l-114.49344 0l0 -42.125977z" fill-rule="nonzero"/><path shape-rendering="crispEdges" fill="#f6b26b" d="m365.50394 364.11285l113.9895 0l0 42.125977l-113.9895 0l0 -42.125977z" fill-rule="nonzero"/><path shape-rendering="crispEdges" fill="#f6b26b" d="m479.49344 364.11285l114.99997 0l0 42.125977l-114.99997 0l0 -42.125977z" fill-rule="nonzero"/><path shape-rendering="crispEdges" fill="#f6b26b" d="m594.4934 364.11285l114.49347 0l0 42.125977l-114.49347 0l0 -42.125977z" fill-rule="nonzero"/><path shape-rendering="crispEdges" fill="#f6b26b" d="m708.9869 364.11285l114.49341 0l0 42.125977l-114.49341 0l0 -42.125977z" fill-rule="nonzero"/><path shape-rendering="crispEdges" fill="#f6b26b" d="m823.4803 364.11285l114.49347 0l0 42.125977l-114.49347 0l0 -42.125977z" fill-rule="nonzero"/><path shape-rendering="crispEdges" fill="#f6b26b" d="m136.51706 406.23883l114.49344 0l0 48.364838l-114.49344 0l0 -48.364838z" fill-rule="nonzero"/><path shape-rendering="crispEdges" fill="#f6b26b" d="m251.0105 406.23883l114.49344 0l0 48.364838l-114.49344 0l0 -48.364838z" fill-rule="nonzero"/><path shape-rendering="crispEdges" fill="#f6b26b" d="m365.50394 406.23883l113.9895 0l0 48.364838l-113.9895 0l0 -48.364838z" fill-rule="nonzero"/><path shape-rendering="crispEdges" fill="#f6b26b" d="m479.49344 406.23883l114.99997 0l0 48.364838l-114.99997 0l0 -48.364838z" fill-rule="nonzero"/><path shape-rendering="crispEdges" fill="#f6b26b" d="m594.4934 406.23883l114.49347 0l0 48.364838l-114.49347 0l0 -48.364838z" fill-rule="nonzero"/><path shape-rendering="crispEdges" fill="#f6b26b" d="m708.9869 406.23883l114.49341 0l0 48.364838l-114.49341 0l0 -48.364838z" fill-rule="nonzero"/><path shape-rendering="crispEdges" fill="#f6b26b" d="m823.4803 406.23883l114.49347 0l0 48.364838l-114.49347 0l0 -48.364838z" fill-rule="nonzero"/><path shape-rendering="crispEdges" fill="#f6b26b" d="m136.51706 454.60367l114.49344 0l0 48.364838l-114.49344 0l0 -48.364838z" fill-rule="nonzero"/><path shape-rendering="crispEdges" fill="#f6b26b" d="m251.0105 454.60367l114.49344 0l0 48.364838l-114.49344 0l0 -48.364838z" fill-rule="nonzero"/><path shape-rendering="crispEdges" fill="#f6b26b" d="m365.50394 454.60367l113.9895 0l0 48.364838l-113.9895 0l0 -48.364838z" fill-rule="nonzero"/><path shape-rendering="crispEdges" fill="#f6b26b" d="m479.49344 454.60367l114.99997 0l0 48.364838l-114.99997 0l0 -48.364838z" fill-rule="nonzero"/><path shape-rendering="crispEdges" fill="#f6b26b" d="m594.4934 454.60367l114.49347 0l0 48.364838l-114.49347 0l0 -48.364838z" fill-rule="nonzero"/><path shape-rendering="crispEdges" fill="#f6b26b" d="m708.9869 454.60367l114.49341 0l0 48.364838l-114.49341 0l0 -48.364838z" fill-rule="nonzero"/><path shape-rendering="crispEdges" fill="#f6b26b" d="m823.4803 454.60367l114.49347 0l0 48.364838l-114.49347 0l0 -48.364838z" fill-rule="nonzero"/><path shape-rendering="crispEdges" fill="#f6b26b" d="m136.51706 502.9685l114.49344 0l0 42.125977l-114.49344 0l0 -42.125977z" fill-rule="nonzero"/><path shape-rendering="crispEdges" fill="#f6b26b" d="m251.0105 502.9685l114.49344 0l0 42.125977l-114.49344 0l0 -42.125977z" fill-rule="nonzero"/><path shape-rendering="crispEdges" fill="#f6b26b" d="m365.50394 502.9685l113.9895 0l0 42.125977l-113.9895 0l0 -42.125977z" fill-rule="nonzero"/><path shape-rendering="crispEdges" fill="#f6b26b" d="m479.49344 502.9685l114.99997 0l0 42.125977l-114.99997 0l0 -42.125977z" fill-rule="nonzero"/><path shape-rendering="crispEdges" fill="#f6b26b" d="m594.4934 502.9685l114.49347 0l0 42.125977l-114.49347 0l0 -42.125977z" fill-rule="nonzero"/><path shape-rendering="crispEdges" fill="#f6b26b" d="m708.9869 502.9685l114.49341 0l0 42.125977l-114.49341 0l0 -42.125977z" fill-rule="nonzero"/><path shape-rendering="crispEdges" fill="#f6b26b" d="m823.4803 502.9685l114.49347 0l0 42.125977l-114.49347 0l0 -42.125977z" fill-rule="nonzero"/><path shape-rendering="crispEdges" fill="#f6b26b" d="m136.51706 545.0945l114.49344 0l0 42.125977l-114.49344 0l0 -42.125977z" fill-rule="nonzero"/><path shape-rendering="crispEdges" fill="#f6b26b" d="m251.0105 545.0945l114.49344 0l0 42.125977l-114.49344 0l0 -42.125977z" fill-rule="nonzero"/><path shape-rendering="crispEdges" fill="#f6b26b" d="m365.50394 545.0945l113.9895 0l0 42.125977l-113.9895 0l0 -42.125977z" fill-rule="nonzero"/><path shape-rendering="crispEdges" fill="#f6b26b" d="m479.49344 545.0945l114.99997 0l0 42.125977l-114.99997 0l0 -42.125977z" fill-rule="nonzero"/><path shape-rendering="crispEdges" fill="#f6b26b" d="m594.4934 545.0945l114.49347 0l0 42.125977l-114.49347 0l0 -42.125977z" fill-rule="nonzero"/><path shape-rendering="crispEdges" fill="#f6b26b" d="m708.9869 545.0945l114.49341 0l0 42.125977l-114.49341 0l0 -42.125977z" fill-rule="nonzero"/><path shape-rendering="crispEdges" fill="#f6b26b" d="m823.4803 545.0945l114.49347 0l0 42.125977l-114.49347 0l0 -42.125977z" fill-rule="nonzero"/><path shape-rendering="crispEdges" fill="#f6b26b" d="m136.51706 587.22046l114.49344 0l0 42.125977l-114.49344 0l0 -42.125977z" fill-rule="nonzero"/><path shape-rendering="crispEdges" fill="#f6b26b" d="m251.0105 587.22046l114.49344 0l0 42.125977l-114.49344 0l0 -42.125977z" fill-rule="nonzero"/><path shape-rendering="crispEdges" fill="#f6b26b" d="m365.50394 587.22046l113.9895 0l0 42.125977l-113.9895 0l0 -42.125977z" fill-rule="nonzero"/><path shape-rendering="crispEdges" fill="#f6b26b" d="m479.49344 587.22046l114.99997 0l0 42.125977l-114.99997 0l0 -42.125977z" fill-rule="nonzero"/><path shape-rendering="crispEdges" fill="#f6b26b" d="m594.4934 587.22046l114.49347 0l0 42.125977l-114.49347 0l0 -42.125977z" fill-rule="nonzero"/><path shape-rendering="crispEdges" fill="#f6b26b" d="m708.9869 587.22046l114.49341 0l0 42.125977l-114.49341 0l0 -42.125977z" fill-rule="nonzero"/><path shape-rendering="crispEdges" fill="#f6b26b" d="m823.4803 587.22046l114.49347 0l0 42.125977l-114.49347 0l0 -42.125977z" fill-rule="nonzero"/><path stroke="#9e9e9e" stroke-width="1.0" stroke-linecap="butt" d="m22.023623 17.745407l0 612.09973" fill-rule="nonzero"/><path stroke="#9e9e9e" stroke-width="1.0" stroke-linecap="butt" d="m136.51706 17.745407l0 612.09973" fill-rule="nonzero"/><path stroke="#9e9e9e" stroke-width="1.0" stroke-linecap="butt" d="m251.0105 17.745407l0 612.09973" fill-rule="nonzero"/><path stroke="#9e9e9e" stroke-width="1.0" stroke-linecap="butt" d="m365.50394 17.745407l0 612.09973" fill-rule="nonzero"/><path stroke="#9e9e9e" stroke-width="1.0" stroke-linecap="butt" d="m479.49344 17.745407l0 612.09973" fill-rule="nonzero"/><path stroke="#9e9e9e" stroke-width="1.0" stroke-linecap="butt" d="m594.4934 17.745407l0 612.09973" fill-rule="nonzero"/><path stroke="#9e9e9e" stroke-width="1.0" stroke-linecap="butt" d="m708.9869 17.745407l0 612.09973" fill-rule="nonzero"/><path stroke="#9e9e9e" stroke-width="1.0" stroke-linecap="butt" d="m823.4803 17.745407l0 612.09973" fill-rule="nonzero"/><path stroke="#9e9e9e" stroke-width="1.0" stroke-linecap="butt" d="m937.97375 17.745407l0 612.09973" fill-rule="nonzero"/><path stroke="#9e9e9e" stroke-width="1.0" stroke-linecap="butt" d="m21.524935 18.244095l916.94745 0" fill-rule="nonzero"/><path stroke="#9e9e9e" stroke-width="1.0" stroke-linecap="butt" d="m21.524935 60.37008l916.94745 0" fill-rule="nonzero"/><path stroke="#9e9e9e" stroke-width="1.0" stroke-linecap="butt" d="m136.01837 145.56693l802.45404 0" fill-rule="nonzero"/><path stroke="#9e9e9e" stroke-width="1.0" stroke-linecap="butt" d="m136.01837 187.69292l802.45404 0" fill-rule="nonzero"/><path stroke="#9e9e9e" stroke-width="1.0" stroke-linecap="butt" d="m136.01837 229.8189l802.45404 0" fill-rule="nonzero"/><path stroke="#9e9e9e" stroke-width="1.0" stroke-linecap="butt" d="m136.01837 271.9449l802.45404 0" fill-rule="nonzero"/><path stroke="#9e9e9e" stroke-width="1.0" stroke-linecap="butt" d="m21.524935 321.98688l916.94745 0" fill-rule="nonzero"/><path stroke="#9e9e9e" stroke-width="1.0" stroke-linecap="butt" d="m136.01837 364.11285l802.45404 0" fill-rule="nonzero"/><path stroke="#9e9e9e" stroke-width="1.0" stroke-linecap="butt" d="m136.01837 406.23883l802.45404 0" fill-rule="nonzero"/><path stroke="#9e9e9e" stroke-width="1.0" stroke-linecap="butt" d="m136.01837 454.60367l802.45404 0" fill-rule="nonzero"/><path stroke="#9e9e9e" stroke-width="1.0" stroke-linecap="butt" d="m136.01837 502.9685l802.45404 0" fill-rule="nonzero"/><path stroke="#9e9e9e" stroke-width="1.0" stroke-linecap="butt" d="m136.01837 545.0945l802.45404 0" fill-rule="nonzero"/><path stroke="#9e9e9e" stroke-width="1.0" stroke-linecap="butt" d="m136.01837 587.22046l802.45404 0" fill-rule="nonzero"/><path stroke="#9e9e9e" stroke-width="1.0" stroke-linecap="butt" d="m21.524935 629.34644l916.94745 0" fill-rule="nonzero"/><path fill="#000000" d="m44.437744 241.29007l0 -13.359375l9.65625 0l0 1.578125l-7.875 0l0 4.09375l7.375 0l0 1.5625l-7.375 0l0 4.546875l8.1875 0l0 1.578125l-9.96875 0zm18.474823 0l0 -1.21875q-0.90625 1.4375 -2.703125 1.4375q-1.15625 0 -2.125 -0.640625q-0.96875 -0.640625 -1.5 -1.78125q-0.53125 -1.140625 -0.53125 -2.625q0 -1.453125 0.484375 -2.625q0.484375 -1.1875 1.4375 -1.8125q0.96875 -0.625 2.171875 -0.625q0.875 0 1.546875 0.375q0.6875 0.359375 1.109375 0.953125l0 -4.796875l1.640625 0l0 13.359375l-1.53125 0zm-5.171875 -4.828125q0 1.859375 0.78125 2.78125q0.78125 0.921875 1.84375 0.921875q1.078125 0 1.828125 -0.875q0.75 -0.890625 0.75 -2.6875q0 -1.984375 -0.765625 -2.90625q-0.765625 -0.9375 -1.890625 -0.9375q-1.078125 0 -1.8125 0.890625q-0.734375 0.890625 -0.734375 2.8125zm9.281967 -6.640625l0 -1.890625l1.640625 0l0 1.890625l-1.640625 0zm0 11.46875l0 -9.671875l1.640625 0l0 9.671875l-1.640625 0zm7.722946 -1.46875l0.234375 1.453125q-0.6875 0.140625 -1.234375 0.140625q-0.890625 0 -1.390625 -0.28125q-0.484375 -0.28125 -0.6875 -0.734375q-0.203125 -0.46875 -0.203125 -1.9375l0 -5.578125l-1.203125 0l0 -1.265625l1.203125 0l0 -2.390625l1.625 -0.984375l0 3.375l1.65625 0l0 1.265625l-1.65625 0l0 5.671875q0 0.6875 0.078125 0.890625q0.09375 0.203125 0.28125 0.328125q0.203125 0.109375 0.578125 0.109375q0.265625 0 0.71875 -0.0625zm1.6051788 -10.0l0 -1.890625l1.640625 0l0 1.890625l-1.640625 0zm0 11.46875l0 -9.671875l1.640625 0l0 9.671875l-1.640625 0zm3.5354462 -4.84375q0 -2.6875 1.484375 -3.96875q1.25 -1.078125 3.046875 -1.078125q2.0 0 3.265625 1.3125q1.265625 1.296875 1.265625 3.609375q0 1.859375 -0.5625 2.9375q-0.5625 1.0625 -1.640625 1.65625q-1.0625 0.59375 -2.328125 0.59375q-2.03125 0 -3.28125 -1.296875q-1.25 -1.3125 -1.25 -3.765625zm1.6875 0q0 1.859375 0.796875 2.796875q0.8125 0.921875 2.046875 0.921875q1.21875 0 2.03125 -0.921875q0.8125 -0.9375 0.8125 -2.84375q0 -1.796875 -0.8125 -2.71875q-0.8125 -0.921875 -2.03125 -0.921875q-1.234375 0 -2.046875 0.921875q-0.796875 0.90625 -0.796875 2.765625zm9.297592 4.84375l0 -9.671875l1.46875 0l0 1.375q1.0625 -1.59375 3.078125 -1.59375q0.875 0 1.609375 0.3125q0.734375 0.3125 1.09375 0.828125q0.375 0.5 0.515625 1.203125q0.09375 0.453125 0.09375 1.59375l0 5.953125l-1.640625 0l0 -5.890625q0 -1.0 -0.203125 -1.484375q-0.1875 -0.5 -0.671875 -0.796875q-0.484375 -0.296875 -1.140625 -0.296875q-1.046875 0 -1.8125 0.671875q-0.75 0.65625 -0.75 2.515625l0 5.28125l-1.640625 0zm21.277771 0l-1.640625 0l0 -10.453125q-0.59375 0.5625 -1.5625 1.140625q-0.953125 0.5625 -1.71875 0.84375l0 -1.59375q1.375 -0.640625 2.40625 -1.5625q1.03125 -0.921875 1.453125 -1.78125l1.0625 0l0 13.40625z" fill-rule="nonzero"/><path fill="#000000" d="m178.53476 87.29008l0 -13.359375l5.015625 0q1.53125 0 2.453125 0.40625q0.921875 0.40625 1.4375 1.25q0.53125 0.84375 0.53125 1.765625q0 0.859375 -0.46875 1.625q-0.453125 0.75 -1.390625 1.203125q1.203125 0.359375 1.859375 1.21875q0.65625 0.859375 0.65625 2.015625q0 0.9375 -0.40625 1.75q-0.390625 0.796875 -0.984375 1.234375q-0.578125 0.4375 -1.453125 0.671875q-0.875 0.21875 -2.15625 0.21875l-5.09375 0zm1.78125 -7.75l2.875 0q1.1875 0 1.6875 -0.140625q0.671875 -0.203125 1.015625 -0.671875q0.34375 -0.46875 0.34375 -1.171875q0 -0.65625 -0.328125 -1.15625q-0.3125 -0.515625 -0.90625 -0.703125q-0.59375 -0.1875 -2.03125 -0.1875l-2.65625 0l0 4.03125zm0 6.171875l3.3125 0q0.859375 0 1.203125 -0.0625q0.609375 -0.109375 1.015625 -0.359375q0.421875 -0.265625 0.6875 -0.75q0.265625 -0.484375 0.265625 -1.125q0 -0.75 -0.390625 -1.296875q-0.375 -0.546875 -1.0625 -0.765625q-0.671875 -0.234375 -1.953125 -0.234375l-3.078125 0l0 4.59375zm10.537323 -9.890625l0 -1.890625l1.640625 0l0 1.890625l-1.640625 0zm0 11.46875l0 -9.671875l1.640625 0l0 9.671875l-1.640625 0zm4.129196 0l0 -9.671875l1.46875 0l0 1.46875q0.5625 -1.03125 1.03125 -1.359375q0.484375 -0.328125 1.0625 -0.328125q0.828125 0 1.6875 0.53125l-0.5625 1.515625q-0.609375 -0.359375 -1.203125 -0.359375q-0.546875 0 -0.96875 0.328125q-0.421875 0.328125 -0.609375 0.890625q-0.28125 0.875 -0.28125 1.921875l0 5.0625l-1.625 0zm12.493927 0l0 -1.21875q-0.90625 1.4375 -2.703125 1.4375q-1.15625 0 -2.125 -0.640625q-0.96875 -0.640625 -1.5 -1.78125q-0.53125 -1.140625 -0.53125 -2.625q0 -1.453125 0.484375 -2.625q0.484375 -1.1875 1.4375 -1.8125q0.96875 -0.625 2.171875 -0.625q0.875 0 1.546875 0.375q0.6875 0.359375 1.109375 0.953125l0 -4.796875l1.640625 0l0 13.359375l-1.53125 0zm-5.171875 -4.828125q0 1.859375 0.78125 2.78125q0.78125 0.921875 1.84375 0.921875q1.078125 0 1.828125 -0.875q0.75 -0.890625 0.75 -2.6875q0 -1.984375 -0.765625 -2.90625q-0.765625 -0.9375 -1.890625 -0.9375q-1.078125 0 -1.8125 0.890625q-0.734375 0.890625 -0.734375 2.8125z" fill-rule="nonzero"/><path fill="#000000" d="m153.09865 105.7432l1.609375 0.21875q-0.265625 1.65625 -1.359375 2.609375q-1.078125 0.9375 -2.671875 0.9375q-1.984375 0 -3.1875 -1.296875q-1.203125 -1.296875 -1.203125 -3.71875q0 -1.578125 0.515625 -2.75q0.515625 -1.171875 1.578125 -1.75q1.0625 -0.59375 2.3125 -0.59375q1.578125 0 2.578125 0.796875q1.0 0.796875 1.28125 2.265625l-1.59375 0.234375q-0.234375 -0.96875 -0.8125 -1.453125q-0.578125 -0.5 -1.390625 -0.5q-1.234375 0 -2.015625 0.890625q-0.78125 0.890625 -0.78125 2.8125q0 1.953125 0.75 2.84375q0.75 0.875 1.953125 0.875q0.96875 0 1.609375 -0.59375q0.65625 -0.59375 0.828125 -1.828125zm3.015625 3.546875l0 -13.359375l1.640625 0l0 4.796875q1.140625 -1.328125 2.890625 -1.328125q1.078125 0 1.859375 0.421875q0.796875 0.421875 1.140625 1.171875q0.34375 0.75 0.34375 2.171875l0 6.125l-1.640625 0l0 -6.125q0 -1.234375 -0.53125 -1.796875q-0.53125 -0.5625 -1.515625 -0.5625q-0.71875 0 -1.359375 0.390625q-0.640625 0.375 -0.921875 1.015625q-0.265625 0.640625 -0.265625 1.78125l0 5.296875l-1.640625 0zm16.688217 -1.1875q-0.921875 0.765625 -1.765625 1.09375q-0.828125 0.3125 -1.796875 0.3125q-1.59375 0 -2.453125 -0.78125q-0.859375 -0.78125 -0.859375 -1.984375q0 -0.71875 0.328125 -1.296875q0.328125 -0.59375 0.84375 -0.9375q0.53125 -0.359375 1.1875 -0.546875q0.46875 -0.125 1.453125 -0.25q1.984375 -0.234375 2.921875 -0.5625q0.015625 -0.34375 0.015625 -0.421875q0 -1.0 -0.46875 -1.421875q-0.625 -0.546875 -1.875 -0.546875q-1.15625 0 -1.703125 0.40625q-0.546875 0.40625 -0.8125 1.421875l-1.609375 -0.21875q0.21875 -1.015625 0.71875 -1.640625q0.5 -0.640625 1.453125 -0.984375q0.953125 -0.34375 2.1875 -0.34375q1.25 0 2.015625 0.296875q0.78125 0.28125 1.140625 0.734375q0.375 0.4375 0.515625 1.109375q0.078125 0.421875 0.078125 1.515625l0 2.1875q0 2.28125 0.109375 2.890625q0.109375 0.59375 0.40625 1.15625l-1.703125 0q-0.265625 -0.515625 -0.328125 -1.1875zm-0.140625 -3.671875q-0.890625 0.375 -2.671875 0.625q-1.015625 0.140625 -1.4375 0.328125q-0.421875 0.1875 -0.65625 0.53125q-0.21875 0.34375 -0.21875 0.78125q0 0.65625 0.5 1.09375q0.5 0.4375 1.453125 0.4375q0.9375 0 1.671875 -0.40625q0.75 -0.421875 1.09375 -1.140625q0.265625 -0.5625 0.265625 -1.640625l0 -0.609375zm4.188217 4.859375l0 -9.671875l1.46875 0l0 1.46875q0.5625 -1.03125 1.03125 -1.359375q0.484375 -0.328125 1.0625 -0.328125q0.828125 0 1.6875 0.53125l-0.5625 1.515625q-0.609375 -0.359375 -1.203125 -0.359375q-0.546875 0 -0.96875 0.328125q-0.421875 0.328125 -0.609375 0.890625q-0.28125 0.875 -0.28125 1.921875l0 5.0625l-1.625 0zm12.540802 -1.1875q-0.921875 0.765625 -1.765625 1.09375q-0.828125 0.3125 -1.796875 0.3125q-1.59375 0 -2.453125 -0.78125q-0.859375 -0.78125 -0.859375 -1.984375q0 -0.71875 0.328125 -1.296875q0.328125 -0.59375 0.84375 -0.9375q0.53125 -0.359375 1.1875 -0.546875q0.46875 -0.125 1.453125 -0.25q1.984375 -0.234375 2.921875 -0.5625q0.015625 -0.34375 0.015625 -0.421875q0 -1.0 -0.46875 -1.421875q-0.625 -0.546875 -1.875 -0.546875q-1.15625 0 -1.703125 0.40625q-0.546875 0.40625 -0.8125 1.421875l-1.609375 -0.21875q0.21875 -1.015625 0.71875 -1.640625q0.5 -0.640625 1.453125 -0.984375q0.953125 -0.34375 2.1875 -0.34375q1.25 0 2.015625 0.296875q0.78125 0.28125 1.140625 0.734375q0.375 0.4375 0.515625 1.109375q0.078125 0.421875 0.078125 1.515625l0 2.1875q0 2.28125 0.109375 2.890625q0.109375 0.59375 0.40625 1.15625l-1.703125 0q-0.265625 -0.515625 -0.328125 -1.1875zm-0.140625 -3.671875q-0.890625 0.375 -2.671875 0.625q-1.015625 0.140625 -1.4375 0.328125q-0.421875 0.1875 -0.65625 0.53125q-0.21875 0.34375 -0.21875 0.78125q0 0.65625 0.5 1.09375q0.5 0.4375 1.453125 0.4375q0.9375 0 1.671875 -0.40625q0.75 -0.421875 1.09375 -1.140625q0.265625 -0.5625 0.265625 -1.640625l0 -0.609375zm10.516342 1.3125l1.609375 0.21875q-0.265625 1.65625 -1.359375 2.609375q-1.078125 0.9375 -2.671875 0.9375q-1.984375 0 -3.1875 -1.296875q-1.203125 -1.296875 -1.203125 -3.71875q0 -1.578125 0.515625 -2.75q0.515625 -1.171875 1.578125 -1.75q1.0625 -0.59375 2.3125 -0.59375q1.578125 0 2.578125 0.796875q1.0 0.796875 1.28125 2.265625l-1.59375 0.234375q-0.234375 -0.96875 -0.8125 -1.453125q-0.578125 -0.5 -1.390625 -0.5q-1.234375 0 -2.015625 0.890625q-0.78125 0.890625 -0.78125 2.8125q0 1.953125 0.75 2.84375q0.75 0.875 1.953125 0.875q0.96875 0 1.609375 -0.59375q0.65625 -0.59375 0.828125 -1.828125zm6.59375 2.078125l0.234375 1.453125q-0.6875 0.140625 -1.234375 0.140625q-0.890625 0 -1.390625 -0.28125q-0.484375 -0.28125 -0.6875 -0.734375q-0.203125 -0.46875 -0.203125 -1.9375l0 -5.578125l-1.203125 0l0 -1.265625l1.203125 0l0 -2.390625l1.625 -0.984375l0 3.375l1.65625 0l0 1.265625l-1.65625 0l0 5.671875q0 0.6875 0.078125 0.890625q0.09375 0.203125 0.28125 0.328125q0.203125 0.109375 0.578125 0.109375q0.265625 0 0.71875 -0.0625zm8.230179 -1.640625l1.6875 0.203125q-0.40625 1.484375 -1.484375 2.3125q-1.078125 0.8125 -2.765625 0.8125q-2.125 0 -3.375 -1.296875q-1.234375 -1.3125 -1.234375 -3.671875q0 -2.453125 1.25 -3.796875q1.265625 -1.34375 3.265625 -1.34375q1.9375 0 3.15625 1.328125q1.234375 1.3125 1.234375 3.703125q0 0.15625 0 0.4375l-7.21875 0q0.09375 1.59375 0.90625 2.453125q0.8125 0.84375 2.015625 0.84375q0.90625 0 1.546875 -0.46875q0.640625 -0.484375 1.015625 -1.515625zm-5.390625 -2.65625l5.40625 0q-0.109375 -1.21875 -0.625 -1.828125q-0.78125 -0.953125 -2.03125 -0.953125q-1.125 0 -1.90625 0.765625q-0.765625 0.75 -0.84375 2.015625zm9.125717 5.765625l0 -9.671875l1.46875 0l0 1.46875q0.5625 -1.03125 1.03125 -1.359375q0.484375 -0.328125 1.0625 -0.328125q0.828125 0 1.6875 0.53125l-0.5625 1.515625q-0.609375 -0.359375 -1.203125 -0.359375q-0.546875 0 -0.96875 0.328125q-0.421875 0.328125 -0.609375 0.890625q-0.28125 0.875 -0.28125 1.921875l0 5.0625l-1.625 0zm6.228302 -11.46875l0 -1.890625l1.640625 0l0 1.890625l-1.640625 0zm0 11.46875l0 -9.671875l1.640625 0l0 9.671875l-1.640625 0zm3.4885712 -2.890625l1.625 -0.25q0.125 0.96875 0.75 1.5q0.625 0.515625 1.75 0.515625q1.125 0 1.671875 -0.453125q0.546875 -0.46875 0.546875 -1.09375q0 -0.546875 -0.484375 -0.875q-0.328125 -0.21875 -1.671875 -0.546875q-1.8125 -0.46875 -2.515625 -0.796875q-0.6875 -0.328125 -1.046875 -0.90625q-0.359375 -0.59375 -0.359375 -1.3125q0 -0.640625 0.296875 -1.1875q0.296875 -0.5625 0.8125 -0.921875q0.375 -0.28125 1.03125 -0.46875q0.671875 -0.203125 1.421875 -0.203125q1.140625 0 2.0 0.328125q0.859375 0.328125 1.265625 0.890625q0.421875 0.5625 0.578125 1.5l-1.609375 0.21875q-0.109375 -0.75 -0.640625 -1.171875q-0.515625 -0.421875 -1.46875 -0.421875q-1.140625 0 -1.625 0.375q-0.46875 0.375 -0.46875 0.875q0 0.3125 0.1875 0.578125q0.203125 0.265625 0.640625 0.4375q0.234375 0.09375 1.4375 0.421875q1.75 0.453125 2.4375 0.75q0.6875 0.296875 1.078125 0.859375q0.390625 0.5625 0.390625 1.40625q0 0.828125 -0.484375 1.546875q-0.46875 0.71875 -1.375 1.125q-0.90625 0.390625 -2.046875 0.390625q-1.875 0 -2.875 -0.78125q-0.984375 -0.78125 -1.25 -2.328125zm13.5625 1.421875l0.234375 1.453125q-0.6875 0.140625 -1.234375 0.140625q-0.890625 0 -1.390625 -0.28125q-0.484375 -0.28125 -0.6875 -0.734375q-0.203125 -0.46875 -0.203125 -1.9375l0 -5.578125l-1.203125 0l0 -1.265625l1.203125 0l0 -2.390625l1.625 -0.984375l0 3.375l1.65625 0l0 1.265625l-1.65625 0l0 5.671875q0 0.6875 0.078125 0.890625q0.09375 0.203125 0.28125 0.328125q0.203125 0.109375 0.578125 0.109375q0.265625 0 0.71875 -0.0625z" fill-rule="nonzero"/><path fill="#000000" d="m188.26169 119.82133l0 -1.890625l1.640625 0l0 1.890625l-1.640625 0zm0 11.468742l0 -9.671867l1.640625 0l0 9.671867l-1.640625 0zm10.457321 -3.5468674l1.609375 0.21875q-0.265625 1.6562424 -1.359375 2.6093674q-1.078125 0.9375 -2.671875 0.9375q-1.984375 0 -3.1875 -1.296875q-1.203125 -1.296875 -1.203125 -3.7187424q0 -1.578125 0.515625 -2.75q0.515625 -1.171875 1.578125 -1.75q1.0625 -0.59375 2.3125 -0.59375q1.578125 0 2.578125 0.796875q1.0 0.796875 1.28125 2.265625l-1.59375 0.234375q-0.234375 -0.96875 -0.8125 -1.453125q-0.578125 -0.5 -1.390625 -0.5q-1.234375 0 -2.015625 0.890625q-0.78125 0.890625 -0.78125 2.8125q0 1.9531174 0.75 2.8437424q0.75 0.875 1.953125 0.875q0.96875 0 1.609375 -0.59375q0.65625 -0.59375 0.828125 -1.8281174z" fill-rule="nonzero"/><path fill="#000000" d="m277.1125 87.29008l5.125 -13.359375l1.90625 0l5.46875 13.359375l-2.015625 0l-1.546875 -4.046875l-5.59375 0l-1.46875 4.046875l-1.875 0zm3.859375 -5.484375l4.53125 0l-1.40625 -3.703125q-0.625 -1.6875 -0.9375 -2.765625q-0.265625 1.28125 -0.71875 2.546875l-1.46875 3.921875zm9.849823 5.484375l0 -9.671875l1.46875 0l0 1.375q1.0625 -1.59375 3.078125 -1.59375q0.875 0 1.609375 0.3125q0.734375 0.3125 1.09375 0.828125q0.375 0.5 0.515625 1.203125q0.09375 0.453125 0.09375 1.59375l0 5.953125l-1.640625 0l0 -5.890625q0 -1.0 -0.203125 -1.484375q-0.1875 -0.5 -0.671875 -0.796875q-0.484375 -0.296875 -1.140625 -0.296875q-1.046875 0 -1.8125 0.671875q-0.75 0.65625 -0.75 2.515625l0 5.28125l-1.640625 0zm16.688202 -3.546875l1.609375 0.21875q-0.265625 1.65625 -1.359375 2.609375q-1.078125 0.9375 -2.671875 0.9375q-1.984375 0 -3.1875 -1.296875q-1.203125 -1.296875 -1.203125 -3.71875q0 -1.578125 0.515625 -2.75q0.515625 -1.171875 1.578125 -1.75q1.0625 -0.59375 2.3125 -0.59375q1.578125 0 2.578125 0.796875q1.0 0.796875 1.28125 2.265625l-1.59375 0.234375q-0.234375 -0.96875 -0.8125 -1.453125q-0.578125 -0.5 -1.390625 -0.5q-1.234375 0 -2.015625 0.890625q-0.78125 0.890625 -0.78125 2.8125q0 1.953125 0.75 2.84375q0.75 0.875 1.953125 0.875q0.96875 0 1.609375 -0.59375q0.65625 -0.59375 0.828125 -1.828125zm3.015625 -7.921875l0 -1.890625l1.640625 0l0 1.890625l-1.640625 0zm0 11.46875l0 -9.671875l1.640625 0l0 9.671875l-1.640625 0zm10.769836 -3.109375l1.6875 0.203125q-0.40625 1.484375 -1.484375 2.3125q-1.078125 0.8125 -2.765625 0.8125q-2.125 0 -3.375 -1.296875q-1.234375 -1.3125 -1.234375 -3.671875q0 -2.453125 1.25 -3.796875q1.265625 -1.34375 3.265625 -1.34375q1.9375 0 3.15625 1.328125q1.234375 1.3125 1.234375 3.703125q0 0.15625 0 0.4375l-7.21875 0q0.09375 1.59375 0.90625 2.453125q0.8125 0.84375 2.015625 0.84375q0.90625 0 1.546875 -0.46875q0.640625 -0.484375 1.015625 -1.515625zm-5.390625 -2.65625l5.40625 0q-0.109375 -1.21875 -0.625 -1.828125q-0.78125 -0.953125 -2.03125 -0.953125q-1.125 0 -1.90625 0.765625q-0.765625 0.75 -0.84375 2.015625zm9.141327 5.765625l0 -9.671875l1.46875 0l0 1.375q1.0625 -1.59375 3.078125 -1.59375q0.875 0 1.609375 0.3125q0.734375 0.3125 1.09375 0.828125q0.375 0.5 0.515625 1.203125q0.09375 0.453125 0.09375 1.59375l0 5.953125l-1.640625 0l0 -5.890625q0 -1.0 -0.203125 -1.484375q-0.1875 -0.5 -0.671875 -0.796875q-0.484375 -0.296875 -1.140625 -0.296875q-1.046875 0 -1.8125 0.671875q-0.75 0.65625 -0.75 2.515625l0 5.28125l-1.640625 0zm13.953857 -1.46875l0.234375 1.453125q-0.6875 0.140625 -1.234375 0.140625q-0.890625 0 -1.390625 -0.28125q-0.484375 -0.28125 -0.6875 -0.734375q-0.203125 -0.46875 -0.203125 -1.9375l0 -5.578125l-1.203125 0l0 -1.265625l1.203125 0l0 -2.390625l1.625 -0.984375l0 3.375l1.65625 0l0 1.265625l-1.65625 0l0 5.671875q0 0.6875 0.078125 0.890625q0.09375 0.203125 0.28125 0.328125q0.203125 0.109375 0.578125 0.109375q0.265625 0 0.71875 -0.0625z" fill-rule="nonzero"/><path fill="#000000" d="m280.02655 108.10258q-0.921875 0.765625 -1.765625 1.09375q-0.828125 0.3125 -1.796875 0.3125q-1.59375 0 -2.453125 -0.78125q-0.859375 -0.78125 -0.859375 -1.984375q0 -0.71875 0.328125 -1.296875q0.328125 -0.59375 0.84375 -0.9375q0.53125 -0.359375 1.1875 -0.546875q0.46875 -0.125 1.453125 -0.25q1.984375 -0.234375 2.921875 -0.5625q0.015625 -0.34375 0.015625 -0.421875q0 -1.0 -0.46875 -1.421875q-0.625 -0.546875 -1.875 -0.546875q-1.15625 0 -1.703125 0.40625q-0.546875 0.40625 -0.8125 1.421875l-1.609375 -0.21875q0.21875 -1.015625 0.71875 -1.640625q0.5 -0.640625 1.453125 -0.984375q0.953125 -0.34375 2.1875 -0.34375q1.25 0 2.015625 0.296875q0.78125 0.28125 1.140625 0.734375q0.375 0.4375 0.515625 1.109375q0.078125 0.421875 0.078125 1.515625l0 2.1875q0 2.28125 0.109375 2.890625q0.109375 0.59375 0.40625 1.15625l-1.703125 0q-0.265625 -0.515625 -0.328125 -1.1875zm-0.140625 -3.671875q-0.890625 0.375 -2.671875 0.625q-1.015625 0.140625 -1.4375 0.328125q-0.421875 0.1875 -0.65625 0.53125q-0.21875 0.34375 -0.21875 0.78125q0 0.65625 0.5 1.09375q0.5 0.4375 1.453125 0.4375q0.9375 0 1.671875 -0.40625q0.75 -0.421875 1.09375 -1.140625q0.265625 -0.5625 0.265625 -1.640625l0 -0.609375zm10.531952 4.859375l0 -1.421875q-1.125 1.640625 -3.0625 1.640625q-0.859375 0 -1.609375 -0.328125q-0.734375 -0.328125 -1.09375 -0.828125q-0.359375 -0.5 -0.5 -1.21875q-0.109375 -0.46875 -0.109375 -1.53125l0 -5.984375l1.640625 0l0 5.359375q0 1.28125 0.109375 1.734375q0.15625 0.640625 0.65625 1.015625q0.5 0.375 1.234375 0.375q0.734375 0 1.375 -0.375q0.65625 -0.390625 0.921875 -1.03125q0.265625 -0.65625 0.265625 -1.890625l0 -5.1875l1.640625 0l0 9.671875l-1.46875 0zm7.6257324 -1.46875l0.234375 1.453125q-0.6875 0.140625 -1.234375 0.140625q-0.890625 0 -1.390625 -0.28125q-0.484375 -0.28125 -0.6875 -0.734375q-0.203125 -0.46875 -0.203125 -1.9375l0 -5.578125l-1.203125 0l0 -1.265625l1.203125 0l0 -2.390625l1.625 -0.984375l0 3.375l1.65625 0l0 1.265625l-1.65625 0l0 5.671875q0 0.6875 0.078125 0.890625q0.09375 0.203125 0.28125 0.328125q0.203125 0.109375 0.578125 0.109375q0.265625 0 0.71875 -0.0625zm1.6051636 1.46875l0 -13.359375l1.640625 0l0 4.796875q1.140625 -1.328125 2.890625 -1.328125q1.078125 0 1.859375 0.421875q0.796875 0.421875 1.140625 1.171875q0.34375 0.75 0.34375 2.171875l0 6.125l-1.640625 0l0 -6.125q0 -1.234375 -0.53125 -1.796875q-0.53125 -0.5625 -1.515625 -0.5625q-0.71875 0 -1.359375 0.390625q-0.640625 0.375 -0.921875 1.015625q-0.265625 0.640625 -0.265625 1.78125l0 5.296875l-1.640625 0zm9.766357 -4.84375q0 -2.6875 1.484375 -3.96875q1.25 -1.078125 3.046875 -1.078125q2.0 0 3.265625 1.3125q1.265625 1.296875 1.265625 3.609375q0 1.859375 -0.5625 2.9375q-0.5625 1.0625 -1.640625 1.65625q-1.0625 0.59375 -2.328125 0.59375q-2.03125 0 -3.28125 -1.296875q-1.25 -1.3125 -1.25 -3.765625zm1.6875 0q0 1.859375 0.796875 2.796875q0.8125 0.921875 2.046875 0.921875q1.21875 0 2.03125 -0.921875q0.8125 -0.9375 0.8125 -2.84375q0 -1.796875 -0.8125 -2.71875q-0.8125 -0.921875 -2.03125 -0.921875q-1.234375 0 -2.046875 0.921875q-0.796875 0.90625 -0.796875 2.765625zm9.281952 4.84375l0 -9.671875l1.46875 0l0 1.46875q0.5625 -1.03125 1.03125 -1.359375q0.484375 -0.328125 1.0625 -0.328125q0.828125 0 1.6875 0.53125l-0.5625 1.515625q-0.609375 -0.359375 -1.203125 -0.359375q-0.546875 0 -0.96875 0.328125q-0.421875 0.328125 -0.609375 0.890625q-0.28125 0.875 -0.28125 1.921875l0 5.0625l-1.625 0zm6.228302 -11.46875l0 -1.890625l1.640625 0l0 1.890625l-1.640625 0zm0 11.46875l0 -9.671875l1.640625 0l0 9.671875l-1.640625 0zm7.7229614 -1.46875l0.234375 1.453125q-0.6875 0.140625 -1.234375 0.140625q-0.890625 0 -1.390625 -0.28125q-0.484375 -0.28125 -0.6875 -0.734375q-0.203125 -0.46875 -0.203125 -1.9375l0 -5.578125l-1.203125 0l0 -1.265625l1.203125 0l0 -2.390625l1.625 -0.984375l0 3.375l1.65625 0l0 1.265625l-1.65625 0l0 5.671875q0 0.6875 0.078125 0.890625q0.09375 0.203125 0.28125 0.328125q0.203125 0.109375 0.578125 0.109375q0.265625 0 0.71875 -0.0625zm1.5270386 5.1875l-0.1875 -1.53125q0.546875 0.140625 0.9375 0.140625q0.546875 0 0.875 -0.1875q0.328125 -0.171875 0.546875 -0.5q0.15625 -0.25 0.5 -1.21875q0.046875 -0.140625 0.140625 -0.40625l-3.671875 -9.6875l1.765625 0l2.015625 5.59375q0.390625 1.078125 0.703125 2.25q0.28125 -1.125 0.671875 -2.203125l2.078125 -5.640625l1.640625 0l-3.6875 9.828125q-0.59375 1.609375 -0.921875 2.203125q-0.4375 0.8125 -1.0 1.1875q-0.5625 0.375 -1.34375 0.375q-0.484375 0 -1.0625 -0.203125z" fill-rule="nonzero"/><path fill="#000000" d="m44.437744 502.90686l0 -13.359375l9.65625 0l0 1.578125l-7.875 0l0 4.09375l7.375 0l0 1.5625l-7.375 0l0 4.546875l8.1875 0l0 1.578125l-9.96875 0zm18.474823 0l0 -1.21875q-0.90625 1.4375 -2.703125 1.4375q-1.15625 0 -2.125 -0.640625q-0.96875 -0.640625 -1.5 -1.78125q-0.53125 -1.140625 -0.53125 -2.625q0 -1.453125 0.484375 -2.625q0.484375 -1.1875 1.4375 -1.8125q0.96875 -0.625 2.171875 -0.625q0.875 0 1.546875 0.375q0.6875 0.359375 1.109375 0.953125l0 -4.796875l1.640625 0l0 13.359375l-1.53125 0zm-5.171875 -4.828125q0 1.859375 0.78125 2.78125q0.78125 0.921875 1.84375 0.921875q1.078125 0 1.828125 -0.875q0.75 -0.890625 0.75 -2.6875q0 -1.984375 -0.765625 -2.90625q-0.765625 -0.9375 -1.890625 -0.9375q-1.078125 0 -1.8125 0.890625q-0.734375 0.890625 -0.734375 2.8125zm9.281967 -6.640625l0 -1.890625l1.640625 0l0 1.890625l-1.640625 0zm0 11.46875l0 -9.671875l1.640625 0l0 9.671875l-1.640625 0zm7.722946 -1.46875l0.234375 1.453125q-0.6875 0.140625 -1.234375 0.140625q-0.890625 0 -1.390625 -0.28125q-0.484375 -0.28125 -0.6875 -0.734375q-0.203125 -0.46875 -0.203125 -1.9375l0 -5.578125l-1.203125 0l0 -1.265625l1.203125 0l0 -2.390625l1.625 -0.984375l0 3.375l1.65625 0l0 1.265625l-1.65625 0l0 5.671875q0 0.6875 0.078125 0.890625q0.09375 0.203125 0.28125 0.328125q0.203125 0.109375 0.578125 0.109375q0.265625 0 0.71875 -0.0625zm1.6051788 -10.0l0 -1.890625l1.640625 0l0 1.890625l-1.640625 0zm0 11.46875l0 -9.671875l1.640625 0l0 9.671875l-1.640625 0zm3.5354462 -4.84375q0 -2.6875 1.484375 -3.96875q1.25 -1.078125 3.046875 -1.078125q2.0 0 3.265625 1.3125q1.265625 1.296875 1.265625 3.609375q0 1.859375 -0.5625 2.9375q-0.5625 1.0625 -1.640625 1.65625q-1.0625 0.59375 -2.328125 0.59375q-2.03125 0 -3.28125 -1.296875q-1.25 -1.3125 -1.25 -3.765625zm1.6875 0q0 1.859375 0.796875 2.796875q0.8125 0.921875 2.046875 0.921875q1.21875 0 2.03125 -0.921875q0.8125 -0.9375 0.8125 -2.84375q0 -1.796875 -0.8125 -2.71875q-0.8125 -0.921875 -2.03125 -0.921875q-1.234375 0 -2.046875 0.921875q-0.796875 0.90625 -0.796875 2.765625zm9.297592 4.84375l0 -9.671875l1.46875 0l0 1.375q1.0625 -1.59375 3.078125 -1.59375q0.875 0 1.609375 0.3125q0.734375 0.3125 1.09375 0.828125q0.375 0.5 0.515625 1.203125q0.09375 0.453125 0.09375 1.59375l0 5.953125l-1.640625 0l0 -5.890625q0 -1.0 -0.203125 -1.484375q-0.1875 -0.5 -0.671875 -0.796875q-0.484375 -0.296875 -1.140625 -0.296875q-1.046875 0 -1.8125 0.671875q-0.75 0.65625 -0.75 2.515625l0 5.28125l-1.640625 0zm23.715271 -1.578125l0 1.578125l-8.828125 0q-0.015625 -0.59375 0.1875 -1.140625q0.34375 -0.90625 1.078125 -1.78125q0.75 -0.875 2.15625 -2.015625q2.171875 -1.78125 2.9375 -2.828125q0.765625 -1.046875 0.765625 -1.96875q0 -0.984375 -0.703125 -1.640625q-0.6875 -0.671875 -1.8125 -0.671875q-1.1875 0 -1.90625 0.71875q-0.703125 0.703125 -0.703125 1.953125l-1.6875 -0.171875q0.171875 -1.890625 1.296875 -2.875q1.140625 -0.984375 3.03125 -0.984375q1.921875 0 3.046875 1.0625q1.125 1.0625 1.125 2.640625q0 0.796875 -0.328125 1.578125q-0.328125 0.78125 -1.09375 1.640625q-0.75 0.84375 -2.53125 2.34375q-1.46875 1.234375 -1.890625 1.6875q-0.421875 0.4375 -0.6875 0.875l6.546875 0z" fill-rule="nonzero"/><path fill="#000000" d="m172.31549 241.64305c-6.398285 0 -12.263382 1.9699707 -17.595306 5.909897c-5.3209076 3.9251251 -9.427032 9.679474 -12.318375 17.263123c-2.88031 7.568817 -4.3204956 16.44107 -4.3204956 26.61673c0 9.331421 1.2752838 18.062958 3.8257904 26.19461c2.5615234 8.131683 6.2883606 14.345215 11.180527 18.640625c4.9031677 4.280609 11.26297 6.4208984 19.079453 6.4208984c7.5526276 0 13.939911 -2.784607 19.161896 -8.353851c5.232971 -5.584015 8.855377 -13.686066 10.867203 -24.306091l-9.597443 -3.2659912c-1.3192291 8.22052 -3.84227 14.4192505 -7.569107 18.59616c-3.7268372 4.1769104 -8.2782135 6.265381 -13.6540985 6.265381c-4.4194336 0 -8.525558 -1.53302 -12.318359 -4.59906c-3.792801 -3.06604 -6.590683 -7.694702 -8.393646 -13.886017c-1.7919464 -6.2061462 -2.6879425 -13.463898 -2.6879425 -21.773315c0 -6.443115 0.7585602 -12.693665 2.2756805 -18.751678c1.5171204 -6.0728455 4.1446075 -10.9088745 7.8824463 -14.508148c3.7488403 -3.5992432 8.410126 -5.39888 13.983902 -5.39888c4.8481903 0 8.871857 1.6218872 12.070999 4.865677c3.1991577 3.2437744 5.63974 8.420471 7.321762 15.530121l9.449036 -2.9993896c-1.9458771 -9.020355 -5.3923798 -16.018906 -10.339523 -20.995667c-4.9471283 -4.976761 -11.048599 -7.4651337 -18.304398 -7.4651337z" fill-rule="evenodd"/><path fill="#000000" d="m234.20415 278.5688c4.3864594 0 8.052841 2.258789 10.99913 6.7763977c2.9572906 4.502777 4.4359436 11.1310425 4.4359436 19.884796c0 9.286957 -1.4676514 16.196655 -4.402954 20.729065c-2.9353027 4.5324097 -6.612671 6.7986145 -11.03212 6.7986145c-4.452423 0 -8.146271 -2.2514038 -11.0815735 -6.754181c-2.9353027 -4.517578 -4.402954 -11.308777 -4.402954 -20.373596c0 -9.064789 1.4676514 -15.841187 4.402954 -20.329132c2.9353027 -4.487976 6.6291504 -6.731964 11.0815735 -6.731964zm0 -9.931274c-6.497238 0 -12.005035 2.6216736 -16.523422 7.8650513c-5.4088745 6.3098145 -8.113312 16.01892 -8.113312 29.12732c0 11.9530945 2.2646942 21.106781 6.7940674 27.46103c4.5403748 6.354248 10.48793 9.531372 17.842667 9.531372c4.5843506 0 8.811401 -1.4441528 12.681168 -4.3324585c3.8807373 -2.8882751 6.832535 -6.9393005 8.855362 -12.153046c2.0338287 -5.228546 3.0507355 -12.39743 3.0507355 -21.506683c0 -11.242126 -2.2921753 -20.04773 -6.8765106 -26.416779c-4.5843506 -6.3838806 -10.48793 -9.575806 -17.710754 -9.575806z" fill-rule="evenodd"/><path fill="#000000" d="m293.12454 268.6375c-3.4959717 0 -6.612671 1.059021 -9.350098 3.177124c-2.7374268 2.1032715 -4.9306335 4.8878784 -6.5796814 8.353821l0 -9.931274l-7.964905 0l0 70.78543l8.904846 0l0 -36.72577c0 -6.4431458 0.47824097 -11.375458 1.4346619 -14.796967c0.9564514 -3.4215088 2.495575 -6.020996 4.61734 -7.798401c2.1327515 -1.7774048 4.452423 -2.6661072 6.9589844 -2.6661072c3.2980652 0 5.672699 1.3330383 7.123871 3.999176c1.4511414 2.6661072 2.1767273 6.665283 2.1767273 11.997528l0 45.99054l8.904846 0l0 -41.124878c0 -7.287384 1.2203064 -12.582581 3.6608887 -15.88562c2.4405823 -3.3178406 5.5078125 -4.9767456 9.20166 -4.9767456c2.0448303 0 3.8257751 0.6443176 5.3428955 1.9329224c1.5171204 1.2886353 2.5615234 2.9919739 3.1332092 5.110077c0.5826416 2.1032715 0.8739929 5.554413 0.8739929 10.353424l0 44.59082l8.855347 0l0 -48.589996c0 -8.08725 -1.4016724 -14.0711975 -4.2050476 -17.951874c-2.8033752 -3.8955078 -6.810547 -5.843231 -12.021545 -5.843231c-6.66214 0 -12.071014 4.132477 -16.226593 12.39743c-1.0223999 -3.9103088 -2.7814026 -6.9541016 -5.276947 -9.131439c-2.484558 -2.1773376 -5.6727295 -3.2659912 -9.564453 -3.2659912z" fill-rule="evenodd"/><path fill="#000000" d="m353.67746 243.30937l0 13.797165l8.904846 0l0 -13.797165zm0 26.92781l0 70.78543l8.904846 0l0 -70.78543z" fill-rule="evenodd"/><path fill="#000000" d="m400.87314 268.6375c-7.288788 0 -12.862549 3.888092 -16.721313 11.664246l0 -10.064575l-8.014374 0l0 70.78543l8.904846 0l0 -38.658722c0 -9.064789 1.3742065 -15.219086 4.1226196 -18.46286c2.7593994 -3.2437744 6.035492 -4.8656616 9.828308 -4.8656616c2.3746338 0 4.441437 0.72576904 6.200409 2.1773071c1.7699585 1.4367676 3.0012512 3.36969 3.6938477 5.798828c0.69259644 2.4143066 1.0389099 6.065399 1.0389099 10.953308l0 43.0578l8.904846 0l0 -43.524384c0 -5.554413 -0.16491699 -9.442505 -0.49472046 -11.664276c-0.52767944 -3.4215088 -1.4511719 -6.376465 -2.7703857 -8.864838c-1.3192444 -2.4883728 -3.309082 -4.4953613 -5.9695435 -6.0209656c-2.649475 -1.5404358 -5.5572815 -2.3106384 -8.72345 -2.3106384z" fill-rule="evenodd"/><path fill="#000000" d="m452.47174 278.5688c4.0236816 0 7.459198 2.1995544 10.306549 6.598633c2.8583374 4.399109 4.287506 10.931091 4.287506 19.595978c0 9.064819 -1.3851929 15.722687 -4.1555786 19.973663c-2.7704163 4.2361755 -6.200409 6.354248 -10.290039 6.354248c-4.1226196 0 -7.552643 -2.1328735 -10.290039 -6.3986816c-2.7374268 -4.2657776 -4.10614 -11.042175 -4.10614 -20.329132c0 -8.531586 1.3851929 -14.9599 4.155609 -19.284943c2.7703857 -4.3398438 6.13443 -6.5097656 10.092133 -6.5097656zm-0.64312744 -9.931274c-4.650299 0 -8.701447 1.5552368 -12.153442 4.6657104c-3.4410095 3.110443 -6.0684814 7.524353 -7.8824463 13.241699c-1.8139343 5.702545 -2.7209167 11.930878 -2.7209167 18.685059c0 9.82019 1.9788513 18.240692 5.936554 25.261475c3.9577026 7.020752 9.547974 10.531158 16.770782 10.531158c5.804657 0 10.652832 -3.0882568 14.544586 -9.2647705l0 0c0.032989502 7.8206177 -0.18139648 12.952911 -0.64312744 15.396851c-0.7915344 3.999176 -2.3086548 7.1096497 -4.551361 9.33139c-2.2427063 2.2217712 -5.425354 3.332672 -9.547974 3.332672c-3.8257751 0 -6.8435364 -1.1109009 -9.053253 -3.332672c-1.6490479 -1.644104 -2.6549683 -4.2657776 -3.0177612 -7.8650208l-8.657471 -1.7330017l0 0c-0.13192749 7.6428833 1.7314758 13.3602295 5.5902405 17.152039c3.8587646 3.8066406 8.921356 5.7099304 15.187714 5.7099304c5.276947 0 9.718384 -1.3330688 13.32428 -3.999176c3.6169128 -2.6661072 6.255371 -6.3023987 7.915436 -10.9088745c1.6710205 -4.5916443 2.5065308 -12.39743 2.5065308 -23.417389l0 -61.18741l-8.21225 0l0 8.531555c-4.023651 -6.7541504 -9.135712 -10.131226 -15.336121 -10.131226z" fill-rule="evenodd"/><path fill="#000000" d="m543.1527 241.64305c-4.8811646 0 -9.317078 1.1108856 -13.307739 3.3326569c-3.9907227 2.221756 -7.0249634 5.4803467 -9.102783 9.775757c-2.0777588 4.280609 -3.1166382 8.887054 -3.1166382 13.819397c0 4.4879456 0.8464966 8.546387 2.5394897 12.175262c1.7040405 3.6140747 4.2875366 6.6430664 7.7505493 9.087006c2.6714478 1.9107361 7.338196 3.9473572 14.000366 6.1098633c6.6621704 2.147705 10.9661255 3.7325745 12.912048 4.7545776c3.0342407 1.5552368 5.2109375 3.480774 6.5302124 5.776581c1.3192139 2.2810059 1.9788208 4.9545593 1.9788208 8.020569c0 3.0216064 -0.68707275 5.813629 -2.0612793 8.376068c-1.3632202 2.5476074 -3.4465332 4.5546265 -6.249878 6.020996c-2.8034058 1.4663391 -6.0355225 2.199524 -9.696411 2.199524c-4.1226196 0 -7.832947 -0.96276855 -11.1310425 -2.8882751c-3.2980957 -1.9403381 -5.7331543 -4.473175 -7.305298 -7.5984497c-1.5610962 -3.1401062 -2.5559692 -7.1540833 -2.9847412 -12.041962l-9.053284 1.0664368c0.13195801 6.532013 1.456665 12.390045 3.9742432 17.574158c2.5285034 5.1693115 6.0079956 9.042603 10.438416 11.619843c4.4414673 2.57724 9.943787 3.8658752 16.506958 3.8658752c5.1779785 0 9.833801 -1.2738037 13.967407 -3.8214417c4.1445923 -2.562439 7.3217773 -6.1394653 9.531494 -10.73111c2.2097168 -4.606476 3.3145752 -9.509155 3.3145752 -14.708099c0 -5.243347 -1.0059204 -9.87204 -3.0177612 -13.886017c-2.0118408 -4.0288086 -5.12854 -7.354065 -9.350098 -9.975739c-2.9022827 -1.7774048 -8.256226 -3.8510437 -16.061707 -6.2209473c-7.7944336 -2.384674 -12.615173 -4.710144 -14.462097 -6.976349c-1.8799438 -2.2661743 -2.8198853 -5.15448 -2.8198853 -8.664886c0 -4.0436096 1.3247681 -7.494751 3.9742432 -10.353424c2.6604614 -2.8734741 6.8930054 -4.310211 12.697632 -4.310211c5.5737305 0 9.784302 1.5774536 12.631653 4.732361c2.8583374 3.1549072 4.534912 7.8206177 5.029602 13.997131l9.20166 -0.9331665c-0.16491699 -5.732147 -1.3522339 -10.86441 -3.5619507 -15.39682c-2.2097168 -4.5323944 -5.3703613 -7.961319 -9.481995 -10.286774c-4.100586 -2.3402557 -8.838867 -3.5103912 -14.214783 -3.5103912z" fill-rule="evenodd"/><path fill="#000000" d="m605.8824 278.5688c4.3864746 0 8.052856 2.258789 10.9991455 6.7763977c2.9572754 4.502777 4.435913 11.1310425 4.435913 19.884796c0 9.286957 -1.4676514 16.196655 -4.402893 20.729065c-2.9353027 4.5324097 -6.612671 6.7986145 -11.032166 6.7986145c-4.4523926 0 -8.14624 -2.2514038 -11.081543 -6.754181c-2.9353027 -4.517578 -4.402954 -11.308777 -4.402954 -20.373596c0 -9.064789 1.4676514 -15.841187 4.402954 -20.329132c2.9353027 -4.487976 6.6291504 -6.731964 11.081543 -6.731964zm0 -9.931274c-6.4971924 0 -12.005005 2.6216736 -16.523376 7.8650513c-5.4088745 6.3098145 -8.113342 16.01892 -8.113342 29.12732c0 11.9530945 2.2647095 21.106781 6.7940674 27.46103c4.540344 6.354248 10.487915 9.531372 17.842651 9.531372c4.5843506 0 8.811401 -1.4441528 12.681152 -4.3324585c3.8807983 -2.8882751 6.8325806 -6.9393005 8.855408 -12.153046c2.0338135 -5.228546 3.0507202 -12.39743 3.0507202 -21.506683c0 -11.242126 -2.2921753 -20.04773 -6.876526 -26.416779c-4.5843506 -6.3838806 -10.487915 -9.575806 -17.710754 -9.575806z" fill-rule="evenodd"/><path fill="#000000" d="m662.2303 278.5688c4.3864746 0 8.052795 2.258789 10.9991455 6.7763977c2.9572754 4.502777 4.435913 11.1310425 4.435913 19.884796c0 9.286957 -1.4676514 16.196655 -4.402954 20.729065c-2.9353027 4.5324097 -6.612671 6.7986145 -11.0321045 6.7986145c-4.4524536 0 -8.146301 -2.2514038 -11.081604 -6.754181c-2.9353027 -4.517578 -4.402954 -11.308777 -4.402954 -20.373596c0 -9.064789 1.4676514 -15.841187 4.402954 -20.329132c2.9353027 -4.487976 6.6291504 -6.731964 11.081604 -6.731964zm0 -9.931274c-6.4972534 0 -12.005066 2.6216736 -16.523438 7.8650513c-5.4088745 6.3098145 -8.113281 16.01892 -8.113281 29.12732c0 11.9530945 2.2646484 21.106781 6.7940674 27.46103c4.540344 6.354248 10.487915 9.531372 17.842651 9.531372c4.5843506 0 8.811401 -1.4441528 12.681152 -4.3324585c3.8807373 -2.8882751 6.8325195 -6.9393005 8.855347 -12.153046c2.0338135 -5.228546 3.0507812 -12.39743 3.0507812 -21.506683c0 -11.242126 -2.2921753 -20.04773 -6.876526 -26.416779c-4.5843506 -6.3838806 -10.487915 -9.575806 -17.710754 -9.575806z" fill-rule="evenodd"/><path fill="#000000" d="m721.9917 268.6375c-7.2888184 0 -12.86261 3.888092 -16.721375 11.664246l0 -10.064575l-8.014343 0l0 70.78543l8.904846 0l0 -38.658722c0 -9.064789 1.3742065 -15.219086 4.1226196 -18.46286c2.7593994 -3.2437744 6.0355225 -4.8656616 9.828308 -4.8656616c2.3746338 0 4.4414673 0.72576904 6.2004395 2.1773071c1.7699585 1.4367676 3.0012207 3.36969 3.6938477 5.798828c0.6925659 2.4143066 1.0388794 6.065399 1.0388794 10.953308l0 43.0578l8.904846 0l0 -43.524384c0 -5.554413 -0.16491699 -9.442505 -0.49468994 -11.664276c-0.52770996 -3.4215088 -1.4511719 -6.376465 -2.7704468 -8.864838c-1.3192139 -2.4883728 -3.309021 -4.4953613 -5.9695435 -6.0209656c-2.649414 -1.5404358 -5.557251 -2.3106384 -8.723389 -2.3106384z" fill-rule="evenodd"/><path fill="#000000" d="m755.6322 243.30937l0 21.662216l2.7208862 51.789337l5.7387085 0l2.5725098 -51.789337l0 -21.662216zm0.39575195 84.04939l0 13.663849l10.240601 0l0 -13.663849z" fill-rule="evenodd"/><path stroke="#000000" stroke-width="1.0" stroke-linejoin="round" stroke-linecap="butt" d="m172.31549 241.64305c-6.398285 0 -12.263382 1.9699707 -17.595306 5.909897c-5.3209076 3.9251251 -9.427032 9.679474 -12.318375 17.263123c-2.88031 7.568817 -4.3204956 16.44107 -4.3204956 26.61673c0 9.331421 1.2752838 18.062958 3.8257904 26.19461c2.5615234 8.131683 6.2883606 14.345215 11.180527 18.640625c4.9031677 4.280609 11.26297 6.4208984 19.079453 6.4208984c7.5526276 0 13.939911 -2.784607 19.161896 -8.353851c5.232971 -5.584015 8.855377 -13.686066 10.867203 -24.306091l-9.597443 -3.2659912c-1.3192291 8.22052 -3.84227 14.4192505 -7.569107 18.59616c-3.7268372 4.1769104 -8.2782135 6.265381 -13.6540985 6.265381c-4.4194336 0 -8.525558 -1.53302 -12.318359 -4.59906c-3.792801 -3.06604 -6.590683 -7.694702 -8.393646 -13.886017c-1.7919464 -6.2061462 -2.6879425 -13.463898 -2.6879425 -21.773315c0 -6.443115 0.7585602 -12.693665 2.2756805 -18.751678c1.5171204 -6.0728455 4.1446075 -10.9088745 7.8824463 -14.508148c3.7488403 -3.5992432 8.410126 -5.39888 13.983902 -5.39888c4.8481903 0 8.871857 1.6218872 12.070999 4.865677c3.1991577 3.2437744 5.63974 8.420471 7.321762 15.530121l9.449036 -2.9993896c-1.9458771 -9.020355 -5.3923798 -16.018906 -10.339523 -20.995667c-4.9471283 -4.976761 -11.048599 -7.4651337 -18.304398 -7.4651337z" fill-rule="evenodd"/><path stroke="#000000" stroke-width="1.0" stroke-linejoin="round" stroke-linecap="butt" d="m234.20415 278.5688c4.3864594 0 8.052841 2.258789 10.99913 6.7763977c2.9572906 4.502777 4.4359436 11.1310425 4.4359436 19.884796c0 9.286957 -1.4676514 16.196655 -4.402954 20.729065c-2.9353027 4.5324097 -6.612671 6.7986145 -11.03212 6.7986145c-4.452423 0 -8.146271 -2.2514038 -11.0815735 -6.754181c-2.9353027 -4.517578 -4.402954 -11.308777 -4.402954 -20.373596c0 -9.064789 1.4676514 -15.841187 4.402954 -20.329132c2.9353027 -4.487976 6.6291504 -6.731964 11.0815735 -6.731964zm0 -9.931274c-6.497238 0 -12.005035 2.6216736 -16.523422 7.8650513c-5.4088745 6.3098145 -8.113312 16.01892 -8.113312 29.12732c0 11.9530945 2.2646942 21.106781 6.7940674 27.46103c4.5403748 6.354248 10.48793 9.531372 17.842667 9.531372c4.5843506 0 8.811401 -1.4441528 12.681168 -4.3324585c3.8807373 -2.8882751 6.832535 -6.9393005 8.855362 -12.153046c2.0338287 -5.228546 3.0507355 -12.39743 3.0507355 -21.506683c0 -11.242126 -2.2921753 -20.04773 -6.8765106 -26.416779c-4.5843506 -6.3838806 -10.48793 -9.575806 -17.710754 -9.575806z" fill-rule="evenodd"/><path stroke="#000000" stroke-width="1.0" stroke-linejoin="round" stroke-linecap="butt" d="m293.12454 268.6375c-3.4959717 0 -6.612671 1.059021 -9.350098 3.177124c-2.7374268 2.1032715 -4.9306335 4.8878784 -6.5796814 8.353821l0 -9.931274l-7.964905 0l0 70.78543l8.904846 0l0 -36.72577c0 -6.4431458 0.47824097 -11.375458 1.4346619 -14.796967c0.9564514 -3.4215088 2.495575 -6.020996 4.61734 -7.798401c2.1327515 -1.7774048 4.452423 -2.6661072 6.9589844 -2.6661072c3.2980652 0 5.672699 1.3330383 7.123871 3.999176c1.4511414 2.6661072 2.1767273 6.665283 2.1767273 11.997528l0 45.99054l8.904846 0l0 -41.124878c0 -7.287384 1.2203064 -12.582581 3.6608887 -15.88562c2.4405823 -3.3178406 5.5078125 -4.9767456 9.20166 -4.9767456c2.0448303 0 3.8257751 0.6443176 5.3428955 1.9329224c1.5171204 1.2886353 2.5615234 2.9919739 3.1332092 5.110077c0.5826416 2.1032715 0.8739929 5.554413 0.8739929 10.353424l0 44.59082l8.855347 0l0 -48.589996c0 -8.08725 -1.4016724 -14.0711975 -4.2050476 -17.951874c-2.8033752 -3.8955078 -6.810547 -5.843231 -12.021545 -5.843231c-6.66214 0 -12.071014 4.132477 -16.226593 12.39743c-1.0223999 -3.9103088 -2.7814026 -6.9541016 -5.276947 -9.131439c-2.484558 -2.1773376 -5.6727295 -3.2659912 -9.564453 -3.2659912z" fill-rule="evenodd"/><path stroke="#000000" stroke-width="1.0" stroke-linejoin="round" stroke-linecap="butt" d="m353.67746 243.30937l0 13.797165l8.904846 0l0 -13.797165zm0 26.92781l0 70.78543l8.904846 0l0 -70.78543z" fill-rule="evenodd"/><path stroke="#000000" stroke-width="1.0" stroke-linejoin="round" stroke-linecap="butt" d="m400.87314 268.6375c-7.288788 0 -12.862549 3.888092 -16.721313 11.664246l0 -10.064575l-8.014374 0l0 70.78543l8.904846 0l0 -38.658722c0 -9.064789 1.3742065 -15.219086 4.1226196 -18.46286c2.7593994 -3.2437744 6.035492 -4.8656616 9.828308 -4.8656616c2.3746338 0 4.441437 0.72576904 6.200409 2.1773071c1.7699585 1.4367676 3.0012512 3.36969 3.6938477 5.798828c0.69259644 2.4143066 1.0389099 6.065399 1.0389099 10.953308l0 43.0578l8.904846 0l0 -43.524384c0 -5.554413 -0.16491699 -9.442505 -0.49472046 -11.664276c-0.52767944 -3.4215088 -1.4511719 -6.376465 -2.7703857 -8.864838c-1.3192444 -2.4883728 -3.309082 -4.4953613 -5.9695435 -6.0209656c-2.649475 -1.5404358 -5.5572815 -2.3106384 -8.72345 -2.3106384z" fill-rule="evenodd"/><path stroke="#000000" stroke-width="1.0" stroke-linejoin="round" stroke-linecap="butt" d="m452.47174 278.5688c4.0236816 0 7.459198 2.1995544 10.306549 6.598633c2.8583374 4.399109 4.287506 10.931091 4.287506 19.595978c0 9.064819 -1.3851929 15.722687 -4.1555786 19.973663c-2.7704163 4.2361755 -6.200409 6.354248 -10.290039 6.354248c-4.1226196 0 -7.552643 -2.1328735 -10.290039 -6.3986816c-2.7374268 -4.2657776 -4.10614 -11.042175 -4.10614 -20.329132c0 -8.531586 1.3851929 -14.9599 4.155609 -19.284943c2.7703857 -4.3398438 6.13443 -6.5097656 10.092133 -6.5097656zm-0.64312744 -9.931274c-4.650299 0 -8.701447 1.5552368 -12.153442 4.6657104c-3.4410095 3.110443 -6.0684814 7.524353 -7.8824463 13.241699c-1.8139343 5.702545 -2.7209167 11.930878 -2.7209167 18.685059c0 9.82019 1.9788513 18.240692 5.936554 25.261475c3.9577026 7.020752 9.547974 10.531158 16.770782 10.531158c5.804657 0 10.652832 -3.0882568 14.544586 -9.2647705l0 0c0.032989502 7.8206177 -0.18139648 12.952911 -0.64312744 15.396851c-0.7915344 3.999176 -2.3086548 7.1096497 -4.551361 9.33139c-2.2427063 2.2217712 -5.425354 3.332672 -9.547974 3.332672c-3.8257751 0 -6.8435364 -1.1109009 -9.053253 -3.332672c-1.6490479 -1.644104 -2.6549683 -4.2657776 -3.0177612 -7.8650208l-8.657471 -1.7330017l0 0c-0.13192749 7.6428833 1.7314758 13.3602295 5.5902405 17.152039c3.8587646 3.8066406 8.921356 5.7099304 15.187714 5.7099304c5.276947 0 9.718384 -1.3330688 13.32428 -3.999176c3.6169128 -2.6661072 6.255371 -6.3023987 7.915436 -10.9088745c1.6710205 -4.5916443 2.5065308 -12.39743 2.5065308 -23.417389l0 -61.18741l-8.21225 0l0 8.531555c-4.023651 -6.7541504 -9.135712 -10.131226 -15.336121 -10.131226z" fill-rule="evenodd"/><path stroke="#000000" stroke-width="1.0" stroke-linejoin="round" stroke-linecap="butt" d="m543.1527 241.64305c-4.8811646 0 -9.317078 1.1108856 -13.307739 3.3326569c-3.9907227 2.221756 -7.0249634 5.4803467 -9.102783 9.775757c-2.0777588 4.280609 -3.1166382 8.887054 -3.1166382 13.819397c0 4.4879456 0.8464966 8.546387 2.5394897 12.175262c1.7040405 3.6140747 4.2875366 6.6430664 7.7505493 9.087006c2.6714478 1.9107361 7.338196 3.9473572 14.000366 6.1098633c6.6621704 2.147705 10.9661255 3.7325745 12.912048 4.7545776c3.0342407 1.5552368 5.2109375 3.480774 6.5302124 5.776581c1.3192139 2.2810059 1.9788208 4.9545593 1.9788208 8.020569c0 3.0216064 -0.68707275 5.813629 -2.0612793 8.376068c-1.3632202 2.5476074 -3.4465332 4.5546265 -6.249878 6.020996c-2.8034058 1.4663391 -6.0355225 2.199524 -9.696411 2.199524c-4.1226196 0 -7.832947 -0.96276855 -11.1310425 -2.8882751c-3.2980957 -1.9403381 -5.7331543 -4.473175 -7.305298 -7.5984497c-1.5610962 -3.1401062 -2.5559692 -7.1540833 -2.9847412 -12.041962l-9.053284 1.0664368c0.13195801 6.532013 1.456665 12.390045 3.9742432 17.574158c2.5285034 5.1693115 6.0079956 9.042603 10.438416 11.619843c4.4414673 2.57724 9.943787 3.8658752 16.506958 3.8658752c5.1779785 0 9.833801 -1.2738037 13.967407 -3.8214417c4.1445923 -2.562439 7.3217773 -6.1394653 9.531494 -10.73111c2.2097168 -4.606476 3.3145752 -9.509155 3.3145752 -14.708099c0 -5.243347 -1.0059204 -9.87204 -3.0177612 -13.886017c-2.0118408 -4.0288086 -5.12854 -7.354065 -9.350098 -9.975739c-2.9022827 -1.7774048 -8.256226 -3.8510437 -16.061707 -6.2209473c-7.7944336 -2.384674 -12.615173 -4.710144 -14.462097 -6.976349c-1.8799438 -2.2661743 -2.8198853 -5.15448 -2.8198853 -8.664886c0 -4.0436096 1.3247681 -7.494751 3.9742432 -10.353424c2.6604614 -2.8734741 6.8930054 -4.310211 12.697632 -4.310211c5.5737305 0 9.784302 1.5774536 12.631653 4.732361c2.8583374 3.1549072 4.534912 7.8206177 5.029602 13.997131l9.20166 -0.9331665c-0.16491699 -5.732147 -1.3522339 -10.86441 -3.5619507 -15.39682c-2.2097168 -4.5323944 -5.3703613 -7.961319 -9.481995 -10.286774c-4.100586 -2.3402557 -8.838867 -3.5103912 -14.214783 -3.5103912z" fill-rule="evenodd"/><path stroke="#000000" stroke-width="1.0" stroke-linejoin="round" stroke-linecap="butt" d="m605.8824 278.5688c4.3864746 0 8.052856 2.258789 10.9991455 6.7763977c2.9572754 4.502777 4.435913 11.1310425 4.435913 19.884796c0 9.286957 -1.4676514 16.196655 -4.402893 20.729065c-2.9353027 4.5324097 -6.612671 6.7986145 -11.032166 6.7986145c-4.4523926 0 -8.14624 -2.2514038 -11.081543 -6.754181c-2.9353027 -4.517578 -4.402954 -11.308777 -4.402954 -20.373596c0 -9.064789 1.4676514 -15.841187 4.402954 -20.329132c2.9353027 -4.487976 6.6291504 -6.731964 11.081543 -6.731964zm0 -9.931274c-6.4971924 0 -12.005005 2.6216736 -16.523376 7.8650513c-5.4088745 6.3098145 -8.113342 16.01892 -8.113342 29.12732c0 11.9530945 2.2647095 21.106781 6.7940674 27.46103c4.540344 6.354248 10.487915 9.531372 17.842651 9.531372c4.5843506 0 8.811401 -1.4441528 12.681152 -4.3324585c3.8807983 -2.8882751 6.8325806 -6.9393005 8.855408 -12.153046c2.0338135 -5.228546 3.0507202 -12.39743 3.0507202 -21.506683c0 -11.242126 -2.2921753 -20.04773 -6.876526 -26.416779c-4.5843506 -6.3838806 -10.487915 -9.575806 -17.710754 -9.575806z" fill-rule="evenodd"/><path stroke="#000000" stroke-width="1.0" stroke-linejoin="round" stroke-linecap="butt" d="m662.2303 278.5688c4.3864746 0 8.052795 2.258789 10.9991455 6.7763977c2.9572754 4.502777 4.435913 11.1310425 4.435913 19.884796c0 9.286957 -1.4676514 16.196655 -4.402954 20.729065c-2.9353027 4.5324097 -6.612671 6.7986145 -11.0321045 6.7986145c-4.4524536 0 -8.146301 -2.2514038 -11.081604 -6.754181c-2.9353027 -4.517578 -4.402954 -11.308777 -4.402954 -20.373596c0 -9.064789 1.4676514 -15.841187 4.402954 -20.329132c2.9353027 -4.487976 6.6291504 -6.731964 11.081604 -6.731964zm0 -9.931274c-6.4972534 0 -12.005066 2.6216736 -16.523438 7.8650513c-5.4088745 6.3098145 -8.113281 16.01892 -8.113281 29.12732c0 11.9530945 2.2646484 21.106781 6.7940674 27.46103c4.540344 6.354248 10.487915 9.531372 17.842651 9.531372c4.5843506 0 8.811401 -1.4441528 12.681152 -4.3324585c3.8807373 -2.8882751 6.8325195 -6.9393005 8.855347 -12.153046c2.0338135 -5.228546 3.0507812 -12.39743 3.0507812 -21.506683c0 -11.242126 -2.2921753 -20.04773 -6.876526 -26.416779c-4.5843506 -6.3838806 -10.487915 -9.575806 -17.710754 -9.575806z" fill-rule="evenodd"/><path stroke="#000000" stroke-width="1.0" stroke-linejoin="round" stroke-linecap="butt" d="m721.9917 268.6375c-7.2888184 0 -12.86261 3.888092 -16.721375 11.664246l0 -10.064575l-8.014343 0l0 70.78543l8.904846 0l0 -38.658722c0 -9.064789 1.3742065 -15.219086 4.1226196 -18.46286c2.7593994 -3.2437744 6.0355225 -4.8656616 9.828308 -4.8656616c2.3746338 0 4.4414673 0.72576904 6.2004395 2.1773071c1.7699585 1.4367676 3.0012207 3.36969 3.6938477 5.798828c0.6925659 2.4143066 1.0388794 6.065399 1.0388794 10.953308l0 43.0578l8.904846 0l0 -43.524384c0 -5.554413 -0.16491699 -9.442505 -0.49468994 -11.664276c-0.52770996 -3.4215088 -1.4511719 -6.376465 -2.7704468 -8.864838c-1.3192139 -2.4883728 -3.309021 -4.4953613 -5.9695435 -6.0209656c-2.649414 -1.5404358 -5.557251 -2.3106384 -8.723389 -2.3106384z" fill-rule="evenodd"/><path stroke="#000000" stroke-width="1.0" stroke-linejoin="round" stroke-linecap="butt" d="m755.6322 243.30937l0 21.662216l2.7208862 51.789337l5.7387085 0l2.5725098 -51.789337l0 -21.662216zm0.39575195 84.04939l0 13.663849l10.240601 0l0 -13.663849z" fill-rule="evenodd"/></g></svg>